<svg width="618" height="109" fill="none" xmlns="http://www.w3.org/2000/svg"><path d="M9 54.94C9 84.502 35.39 107 72.268 107c25.078 0 45.894-7.883 59.827-19.871l-.82-1.807c-10.654 9.69-31.962 17.901-51.795 17.901-38.518 0-65.727-19.871-65.727-52.552 0-24.141 26.881-45.326 59.99-45.326 21.145 0 39.994 6.404 50.32 15.108l1.475 27.59 1.148.329 8.523-28.247C117.343 8.793 99.477 1.732 80.791 1.732 36.864 1.732 9 23.245 9 54.94zM235.092 107c40.158 0 68.514-22.17 68.514-53.373 0-30.382-27.045-51.895-65.399-51.895-41.961 0-71.792 22.663-71.792 54.687 0 29.724 28.52 50.581 68.677 50.581zm5.737-3.777c-38.19 0-69.66-20.036-69.66-51.074 0-25.62 27.7-46.804 61.465-46.804 36.223 0 66.219 20.692 66.219 52.388-.164 24.962-26.062 45.49-58.024 45.49zM396.868 107c40.157 0 68.513-22.17 68.513-53.373 0-30.382-27.044-51.895-65.399-51.895-41.96 0-71.791 22.663-71.791 54.687 0 29.724 28.52 50.581 68.677 50.581zm5.737-3.777c-38.191 0-69.661-20.036-69.661-51.074 0-25.62 27.7-46.804 61.465-46.804 36.224 0 66.219 20.692 66.219 52.388-.164 24.962-26.061 45.49-58.023 45.49zm80.805.328l.328.493h57.367l.328-.657-29.503-7.554V61.017h50.647c31.307-.164 45.566-8.868 45.566-28.575 0-16.751-17.374-26.933-45.566-26.933h-78.839l-.328.493 24.586 7.718v82.113l-24.586 7.718zm28.52-46.804V10.6l45.73-1.478c31.306 0 46.55 7.718 46.55 25.619 0 15.601-14.26 22.992-43.272 22.827l-49.008-.82z" fill="#000"/></svg>