<svg width="618" height="109" fill="none" xmlns="http://www.w3.org/2000/svg"><path d="M608 53.791c0-29.56-26.389-52.06-63.268-52.06-25.078 0-45.894 7.884-59.827 19.872l.82 1.806c10.654-9.689 31.962-17.9 51.795-17.9 38.518 0 65.727 19.871 65.727 52.552 0 24.141-26.881 45.326-59.99 45.326-21.145 0-39.994-6.405-50.32-15.109l-1.475-27.59-1.148-.328-8.523 28.247C499.657 99.938 517.523 107 536.208 107 580.136 107 608 85.487 608 53.791zM381.908 1.732c-40.158 0-68.514 22.17-68.514 53.373 0 30.382 27.045 51.895 65.399 51.895 41.961 0 71.792-22.663 71.792-54.687 0-29.725-28.52-50.581-68.677-50.581zm-5.737 3.777c38.19 0 69.66 20.035 69.66 51.074 0 25.619-27.7 46.804-61.465 46.804-36.223 0-66.219-20.692-66.219-52.388.164-24.962 26.062-45.49 58.024-45.49zM220.132 1.732c-40.157 0-68.513 22.17-68.513 53.373 0 30.382 27.044 51.895 65.399 51.895 41.96 0 71.791-22.663 71.791-54.687 0-29.725-28.52-50.581-68.677-50.581zm-5.737 3.777c38.191 0 69.661 20.035 69.661 51.074 0 25.619-27.7 46.804-61.465 46.804-36.224 0-66.219-20.692-66.219-52.388.164-24.962 26.061-45.49 58.023-45.49zM133.59 5.18l-.328-.492H75.895l-.328.657 29.503 7.554v34.816H54.423c-31.307.164-45.566 8.868-45.566 28.575 0 16.75 17.374 26.933 45.566 26.933h78.839l.328-.493-24.586-7.719V12.9l24.586-7.72zm-28.52 46.805v46.147L59.34 99.61c-31.306 0-46.55-7.719-46.55-25.62 0-15.6 14.26-22.99 43.272-22.827l49.008.822z" fill="#000"/></svg>