<svg width="1556" height="106" fill="none" xmlns="http://www.w3.org/2000/svg"><path d="M.2 53.733c0 29.56 26.39 52.059 63.268 52.059 25.078 0 45.895-7.883 59.827-19.871l-.82-1.807c-10.654 9.69-31.962 17.901-51.795 17.901-38.518 0-65.726-19.871-65.726-52.552 0-24.141 26.88-45.326 59.99-45.326 21.144 0 39.993 6.404 50.319 15.108l1.475 27.59 1.148.329 8.523-28.247C108.543 7.585 90.677.524 71.992.524 28.064.524.2 22.037.2 53.733zm226.093 52.059c40.157 0 68.513-22.17 68.513-53.373 0-30.382-27.045-51.895-65.399-51.895-41.96 0-71.792 22.663-71.792 54.687 0 29.724 28.52 50.581 68.678 50.581zm5.736-3.777c-38.19 0-69.66-20.036-69.66-51.074 0-25.62 27.7-46.804 61.465-46.804 36.224 0 66.219 20.692 66.219 52.387-.164 24.963-26.062 45.491-58.024 45.491zm156.039 3.777c40.157 0 68.513-22.17 68.513-53.373 0-30.382-27.044-51.895-65.399-51.895-41.96 0-71.791 22.663-71.791 54.687 0 29.724 28.52 50.581 68.677 50.581zm5.737-3.777c-38.191 0-69.661-20.036-69.661-51.074 0-25.62 27.701-46.804 61.466-46.804 36.223 0 66.218 20.692 66.218 52.387-.164 24.963-26.061 45.491-58.023 45.491zm80.805.328l.328.493h57.367l.328-.657-29.503-7.554V59.809h50.647c31.307-.164 45.567-8.868 45.567-28.575 0-16.751-17.375-26.933-45.567-26.933h-78.839l-.328.493 24.586 7.718v82.113l-24.586 7.718zm28.52-46.804V9.392l45.73-1.478c31.307 0 46.55 7.718 46.55 25.619 0 15.601-14.26 22.991-43.272 22.827l-49.008-.82zm561.65 48.285l-7.42-31.698-.99.329-2.15 25.95-52.47 1.642-.17-88.36 24.75-7.226-.33-.986h-52.8l-.33.986 24.752 7.226.165 88.36-52.639-1.478-4.125-26.114-1.155-.329-4.95 31.698 37.952-1.806h53.63l38.28 1.806zm490.93-2.795l-25.76-7.225-55.78-90.324h-4.1l-53.65 90.324-22.15 7.225.33.986h48.56l.33-.986-22.97-7.225 51.35-85.726 53.48 85.726-25.75 7.225.33.986h55.45l.33-.986zM1333.38.524c-40.19 0-68.58 22.17-68.58 53.373 0 30.381 27.07 51.895 65.46 51.895 42 0 71.86-22.663 71.86-54.687 0-29.725-28.55-50.581-68.74-50.581zm-5.74 3.777c38.22 0 69.72 20.035 69.72 51.074 0 25.619-27.72 46.804-61.52 46.804-36.26 0-66.28-20.692-66.28-52.388.16-24.962 26.09-45.49 58.08-45.49zM856.905.524c-40.194 0-68.576 22.17-68.576 53.373 0 30.381 27.07 51.895 65.459 51.895 41.999 0 71.858-22.663 71.858-54.687C925.646 21.38 897.1.524 856.905.524zM851.163 4.3c38.226 0 69.725 20.035 69.725 51.074 0 25.619-27.726 46.804-61.522 46.804-36.257 0-66.279-20.692-66.279-52.388.164-24.962 26.085-45.49 58.076-45.49zm282.727 93.555c-15.91 0-34.06-4.762-46.4-11.4l-4.02 17.317 1.49.288 3.72-12.266c4.76 3.319 22.9 13.998 45.21 13.998 23.2 0 36.59-11.69 36.59-23.956 0-29.584-77.79-19.77-77.79-45.746 0-11.978 16.36-24.39 54.59-24.39 55.92.001 105.15 26.41 105.15 59.457 0 12.7-7.29 22.946-17.4 22.946-9.23 0-14.28-8.515-16.66-15.009l-1.34.578c1.93 7.07 8.03 16.595 18.14 16.595 9.23 0 19.49-7.937 19.49-25.687 0-41.273-56.07-67.105-108.87-67.105-35.84 0-55.33 11.978-55.33 31.46 0 39.108 77.79 25.832 77.79 46.757 0 9.236-15.62 16.163-34.36 16.163zM789.313 4.896c-55.35 4.121-69.188 72.9-88.935 96.349l.72 1.136c6.054-.284 5.478-.284 6.631-.284 30.99 0 40.792 3.695 52.324 3.695 16.864 0 21.765-7.958 21.765-14.637 0-7.248-5.766-12.932-10.234-16.484l-1.153.994c2.162 1.848 9.225 7.958 9.225 14.353 0 4.974-4.469 6.253-16.144 6.395-18.162.142-38.486.284-59.098 3.41 15.423-23.02 36.9-89.385 84.899-93.506v-1.42zm-124.394-1.42c-18.306 0-32.721 11.794-32.721 27.71 0 14.353 11.532 23.59 28.108 23.59 15.856 0 27.675-8.385 27.675-18.332 0-4.263-2.162-8.384-5.477-11.085l-1.009.995c2.883 2.7 4.324 6.253 4.324 9.237 0 8.242-11.531 13.5-25.369 13.5-16.72 0-26.09-7.816-26.09-17.763 0-12.221 13.982-20.037 30.559-20.037 28.54 0 49.585 18.047 54.774 42.774-19.171 23.306-51.027 43.627-73.945 43.627-7.063 0-13.261-1.99-18.595-5.969l-1.153.853c4.036 6.963 10.378 12.505 20.18 12.505 20.468 0 55.062-24.442 75.675-51.016-6.487-29.274-28.973-50.59-56.936-50.59z" fill="#000"/></svg>