<svg width="1556" height="106" fill="none" xmlns="http://www.w3.org/2000/svg"><path d="M490.924 1.968l7.425 31.698.99-.329 2.146-25.95 52.473-1.642.165 88.36-24.752 7.226.33.986h52.804l.33-.986-24.752-7.226-.165-88.36 52.639 1.478 4.125 26.114 1.155.328 4.95-31.697-37.952 1.806h-53.629l-38.282-1.806zM0 4.763l25.757 7.225 55.78 90.324h4.101l53.647-90.324 22.148-7.225-.328-.986h-48.561l-.328.986 22.968 7.225-51.35 85.726L30.35 11.988l25.757-7.225-.328-.986H.328L0 4.763zm222.326 100.505c40.194 0 68.576-22.17 68.576-53.373C290.902 21.513 263.833 0 225.443 0c-41.999 0-71.858 22.663-71.858 54.687 0 29.725 28.547 50.581 68.741 50.581zm5.742-3.777c-38.226 0-69.725-20.035-69.725-51.074 0-25.619 27.726-46.804 61.522-46.804 36.257 0 66.279 20.692 66.279 52.388-.164 24.962-26.085 45.49-58.076 45.49zm470.732 3.777c40.194 0 68.576-22.17 68.576-53.373C767.376 21.513 740.306 0 701.917 0c-41.999 0-71.858 22.663-71.858 54.687 0 29.725 28.546 50.581 68.741 50.581zm5.742-3.777c-38.226 0-69.725-20.035-69.725-51.074 0-25.619 27.726-46.804 61.522-46.804 36.257 0 66.279 20.692 66.279 52.388-.164 24.962-26.085 45.49-58.076 45.49zM421.813 7.937c15.914 0 34.058 4.762 46.403 11.4l4.015-17.317-1.487-.288-3.718 12.266C462.267 10.68 444.122 0 421.813 0c-23.201 0-36.587 11.69-36.587 23.956 0 29.583 77.784 19.77 77.784 45.746 0 11.978-16.36 24.389-54.582 24.389-55.921 0-105.15-26.409-105.15-59.456 0-12.7 7.288-22.946 17.401-22.946 9.221 0 14.278 8.515 16.658 15.009l1.338-.578c-1.933-7.07-8.031-16.595-18.145-16.595-9.221 0-19.483 7.937-19.483 25.687 0 41.273 56.07 67.105 108.868 67.105 35.843 0 55.326-11.978 55.326-31.46 0-39.108-77.784-25.832-77.784-46.757 0-9.236 15.617-16.163 34.356-16.163zm344.579 92.959c55.35-4.121 69.188-72.901 88.935-96.349l-.72-1.136c-6.054.284-5.478.284-6.631.284-30.99 0-40.792-3.695-52.323-3.695-16.865 0-21.766 7.958-21.766 14.637 0 7.247 5.766 12.932 10.234 16.484l1.153-.994c-2.162-1.848-9.225-7.958-9.225-14.353 0-4.974 4.469-6.253 16.144-6.395 18.162-.142 38.486-.284 59.098-3.41-15.423 23.02-36.9 89.385-84.899 93.506v1.421zm124.394 1.421c18.307 0 32.721-11.795 32.721-27.711 0-14.353-11.532-23.59-28.108-23.59-15.856 0-27.675 8.385-27.675 18.332 0 4.263 2.162 8.384 5.477 11.084l1.009-.994c-2.883-2.7-4.324-6.253-4.324-9.237 0-8.242 11.531-13.5 25.369-13.5 16.72 0 26.09 7.815 26.09 17.763 0 12.221-13.982 20.037-30.559 20.037-28.54 0-49.584-18.048-54.774-42.774C855.183 28.42 887.039 8.1 909.957 8.1c7.063 0 13.262 1.99 18.595 5.969l1.153-.853C925.669 6.253 919.327.71 909.525.71c-20.468 0-55.062 24.442-75.675 51.016 6.487 29.274 28.973 50.59 56.936 50.59zM1555.51 52.06c0-29.561-26.39-52.06-63.27-52.06-25.08 0-45.9 7.883-59.83 19.871l.82 1.807c10.65-9.69 31.96-17.9 51.8-17.9 38.51 0 65.72 19.87 65.72 52.551 0 24.141-26.88 45.326-59.99 45.326-21.14 0-39.99-6.404-50.32-15.108l-1.47-27.59-1.15-.329-8.52 28.247c17.86 11.332 35.73 18.393 54.41 18.393 43.93 0 71.8-21.513 71.8-53.209zM1329.41 0c-40.15 0-68.51 22.17-68.51 53.373 0 30.382 27.04 51.895 65.4 51.895 41.96 0 71.79-22.663 71.79-54.687 0-29.724-28.52-50.58-68.68-50.581zm-5.73 3.777c38.19 0 69.66 20.036 69.66 51.074 0 25.62-27.7 46.804-61.47 46.804-36.22 0-66.22-20.692-66.22-52.388.17-24.962 26.06-45.49 58.03-45.49zM1167.64 0c-40.16 0-68.52 22.17-68.52 53.373 0 30.382 27.05 51.895 65.4 51.895 41.96 0 71.79-22.663 71.79-54.687 0-29.724-28.52-50.581-68.67-50.581zm-5.74 3.777c38.19 0 69.66 20.036 69.66 51.074 0 25.62-27.7 46.804-61.46 46.804-36.23 0-66.22-20.692-66.22-52.388.16-24.962 26.06-45.49 58.02-45.49zm-80.8-.328l-.33-.493h-57.37l-.33.657 29.51 7.554v34.816h-50.65c-31.308.164-45.568 8.868-45.568 28.575 0 16.751 17.374 26.933 45.568 26.933h78.84l.33-.493-24.59-7.718V11.167l24.59-7.718zm-28.52 46.804V96.4l-45.73 1.478c-31.311 0-46.554-7.718-46.554-25.619 0-15.601 14.26-22.992 43.274-22.827l49.01.82z" fill="#000"/></svg>