<svg width="219" height="45" fill="none" xmlns="http://www.w3.org/2000/svg"><path d="M15.091 21.297l-3.987 10.356-4.929-12.627c-.941-2.436-1.08-3.489-.47-4.873H0c1.717 1.384 2.492 2.88 3.766 6.175l6.23 15.977h.305c.304-1.384 1.412-2.713 1.938-2.88a14.67 14.67 0 01.637-2.049l4.32-11.214c.858-2.216 2.049-5.15 2.88-5.981h-5.068c1.966 1.356 1.44 3.516.083 7.116zm15.756-7.283c-5.233 0-10.411 3.545-10.411 10.716 0 7.366 5.538 11.049 10.882 11.049 5.178 0 10.329-3.655 10.329-10.8 0-7.365-5.483-10.965-10.8-10.965zm1.523 20.768c-4.236 0-9-4.209-9-11.824 0-5.62 3.296-8.058 6.563-8.058 4.237 0 8.695 4.21 8.695 11.741-.027 5.566-2.963 8.141-6.258 8.141zm39.791-19.799l.886-1.246-.221-.166c-.554.388-1.385.582-2.575.582h-2.022v-1.44c0-3.517.831-6.424.776-6.424.138-.859-.028-1.579-.194-2.105C67.897 1.61 64.657-.08 60.753.003c-4.597 0-8.197 2.021-9.415 5.289-1.108 2.935.056 6.258 3.074 8.889.055.027.11.083.194.138-1.136-.25-2.354-.36-3.573-.36-4.015 0-6.507 2.603-6.507 5.455 0 3.046 2.27 4.984 6.674 6.424 3.046.997 5.455 2.41 5.455 5.012 0 2.215-2.133 4.32-4.763 4.32-1.966 0-3.517-.997-4.597-2.63-1.19-1.8-1.855-4.293-1.883-6.785h-.332c0 2.215-.72 4.015-1.717 5.289 1.579 3.295 4.403 4.929 8.141 4.929 4.79 0 7.726-2.437 7.726-5.954 0-3.433-2.021-5.15-6.895-6.645-3.904-1.191-5.704-2.41-5.704-4.708 0-2.409 1.495-3.987 3.766-3.987 2.88 0 5.953 1.246 5.953 3.849a3.85 3.85 0 01-.858 2.437l.332.221c1.108-1.274 2.05-3.046 3.074-3.738-.333-.83-.859-1.44-1.551-1.938-.028-.028-.028-.056-.055-.083l-.056-.056c-.166-.11-.47-.304-.83-.526-.61-.388-1.385-.886-1.634-1.08-2.852-2.492-3.932-5.566-2.935-8.28 1.19-3.018 4.596-4.9 8.944-4.9 3.6-.084 6.7 1.495 7.531 3.82a3.74 3.74 0 01.028 2.576l-3.683 4.514v.332c.554.554.859 1.495.942 2.326h-3.046l-.886 1.523.249.11c.526-.553 1.08-.83 1.717-.83h1.855v18.636c0 .941.083 1.3-.222 1.855h3.462c-.332-.831-.471-1.163-.471-2.105V14.984h3.904zm10.938-.969c-5.234 0-10.412 3.545-10.412 10.716 0 7.366 5.538 11.049 10.883 11.049 5.178 0 10.328-3.655 10.328-10.8 0-7.365-5.482-10.965-10.799-10.965zm1.495 20.768c-4.236 0-9-4.209-9-11.824 0-5.62 3.296-8.058 6.564-8.058 4.236 0 8.694 4.21 8.694 11.741 0 5.566-2.963 8.141-6.258 8.141zm26.417-2.742l-6.812-11.048 2.908-3.295c2.326-2.713 3.24-2.963 6.563-3.295v-.25h-6.175c-.637 1.94-.97 2.382-3.739 5.567l-3.904 4.54V7.868c0-3.517.055-4.541.609-6.48l-.36-.138-3.849 6.59v.333c.83 1.024.83 2.824.83 5.26v20.132c0 .941.029 1.301-.276 1.855h3.434c-.333-.83-.416-1.163-.416-2.104V26.06l2.326-2.659 7.698 12.073h5.76v-.249c-2.215-.166-3.129-.83-4.597-3.184zm33.644-2.934c-1.135 3.793-4.458 6.978-9.941 6.978-7.227 0-10.882-5.068-10.882-11.104 0-6.203 4.126-11.353 10.965-11.353 6.452 0 9.276 4.042 9.83 7.088h-2.464c-.942-2.409-2.935-4.873-7.477-4.873-5.067 0-8.279 3.793-8.279 9.055 0 4.984 3.101 8.916 8.335 8.916 3.987 0 6.258-1.966 7.448-4.707h2.465zm25.004-4.237c0 5.538-3.433 11.215-10.91 11.215-6.811 0-10.799-5.317-10.799-11.187 0-6.258 4.292-11.27 10.966-11.27 6.839.027 10.743 5.4 10.743 11.242zm-19.161.028c0 4.43 3.018 8.888 8.334 8.888 5.566 0 8.252-4.07 8.252-8.888 0-4.846-3.101-9-8.362-9-5.511 0-8.224 4.21-8.224 9zm43.058-.028c0 5.538-3.433 11.215-10.91 11.215-6.812 0-10.799-5.317-10.799-11.187 0-6.258 4.292-11.27 10.965-11.27 6.84.027 10.744 5.4 10.744 11.242zm-19.162.028c0 4.43 3.019 8.888 8.335 8.888 5.566 0 8.252-4.07 8.252-8.888 0-4.846-3.101-9-8.362-9-5.511 0-8.225 4.21-8.225 9zM197.516 45V19.58c0-1.772 0-3.572-.055-5.344h2.381c.083.692.139 2.132.139 4.154 1.273-2.52 3.959-4.763 8.639-4.763 5.815 0 9.858 4.763 9.858 10.882 0 6.674-4.541 11.547-10.467 11.547-4.874 0-6.812-2.243-8.03-4.347v13.263h-2.465V45zm10.467-29.075c-5.566 0-8.085 4.043-8.085 9.055 0 4.873 2.63 8.75 8.002 8.75 5.4 0 8.003-4.541 8.003-9.193-.028-4.126-2.382-8.612-7.92-8.612z" fill="#000"/></svg>