<svg width="222" height="46" fill="none" xmlns="http://www.w3.org/2000/svg"><path d="M15.427 21.77L11.35 32.357 6.312 19.449c-.962-2.49-1.104-3.566-.481-4.982H0c1.755 1.416 2.548 2.944 3.85 6.312l6.368 16.333h.312c.311-1.415 1.443-2.774 1.981-2.944.142-.65.397-1.444.651-2.094l4.416-11.464c.877-2.265 2.095-5.265 2.944-6.114h-5.18c2.01 1.387 1.472 3.594.085 7.274zm16.106-7.444c-5.35 0-10.643 3.623-10.643 10.954 0 7.53 5.66 11.294 11.124 11.294 5.293 0 10.558-3.736 10.558-11.04 0-7.529-5.605-11.208-11.04-11.208zm1.556 21.23c-4.33 0-9.199-4.303-9.199-12.087 0-5.747 3.369-8.238 6.709-8.238 4.33 0 8.888 4.303 8.888 12.002-.029 5.69-3.03 8.322-6.398 8.322zm40.676-20.24l.906-1.273-.227-.17c-.566.396-1.415.594-2.632.594h-2.066v-1.472c0-3.594.849-6.567.792-6.567.142-.877-.028-1.613-.198-2.15-.934-2.633-4.246-4.36-8.237-4.275-4.699 0-8.379 2.066-9.624 5.406-1.132 3 .057 6.397 3.142 9.087.056.028.113.085.198.141-1.16-.255-2.406-.368-3.651-.368-4.105 0-6.652 2.66-6.652 5.576 0 3.114 2.32 5.095 6.822 6.567 3.113 1.02 5.576 2.463 5.576 5.124 0 2.264-2.18 4.415-4.869 4.415-2.01 0-3.595-1.019-4.699-2.689-1.217-1.84-1.896-4.387-1.924-6.935h-.34c0 2.265-.736 4.105-1.755 5.407 1.613 3.368 4.5 5.038 8.322 5.038 4.897 0 7.897-2.49 7.897-6.085 0-3.51-2.066-5.265-7.048-6.794-3.991-1.217-5.831-2.463-5.831-4.812 0-2.462 1.529-4.076 3.85-4.076 2.943 0 6.085 1.274 6.085 3.935a3.93 3.93 0 01-.877 2.49l.34.227c1.132-1.302 2.094-3.114 3.142-3.821-.34-.85-.878-1.472-1.586-1.982-.028-.028-.028-.056-.056-.085l-.057-.056c-.17-.113-.481-.312-.85-.538-.622-.396-1.414-.906-1.67-1.104-2.915-2.547-4.019-5.69-3-8.463 1.218-3.086 4.7-5.01 9.143-5.01 3.68-.085 6.85 1.528 7.7 3.906.31.849.34 1.755.028 2.632l-3.765 4.614v.34c.566.566.878 1.528.963 2.377h-3.114l-.906 1.557.255.113c.538-.566 1.104-.849 1.755-.849h1.896v19.05c0 .962.085 1.33-.226 1.896h3.538c-.34-.849-.481-1.188-.481-2.15V15.315h3.991zm11.181-.99c-5.35 0-10.643 3.623-10.643 10.954 0 7.53 5.66 11.294 11.124 11.294 5.293 0 10.558-3.736 10.558-11.04 0-7.529-5.605-11.208-11.04-11.208zm1.528 21.23c-4.33 0-9.2-4.303-9.2-12.087 0-5.747 3.37-8.238 6.71-8.238 4.33 0 8.887 4.303 8.887 12.002 0 5.69-3.028 8.322-6.397 8.322zm27.004-2.803l-6.963-11.294 2.972-3.369c2.378-2.774 3.312-3.028 6.708-3.368v-.255h-6.312c-.651 1.982-.99 2.435-3.821 5.69l-3.991 4.642V8.042c0-3.595.056-4.642.623-6.624l-.368-.141-3.935 6.737v.34c.85 1.047.85 2.887.85 5.377V34.31c0 .962.028 1.33-.284 1.896h3.51c-.34-.849-.424-1.189-.424-2.151v-7.416l2.377-2.717 7.869 12.34h5.888v-.254c-2.265-.17-3.199-.85-4.699-3.255zm34.098-3.219c-1.144 3.825-4.494 7.035-10.021 7.035-7.286 0-10.971-5.109-10.971-11.194 0-6.253 4.159-11.446 11.054-11.446 6.505 0 9.352 4.076 9.91 7.147h-2.484c-.949-2.429-2.959-4.913-7.537-4.913-5.109 0-8.347 3.824-8.347 9.128 0 5.025 3.126 8.989 8.403 8.989 4.019 0 6.308-1.982 7.509-4.746h2.484zm25.208-4.271c0 5.583-3.461 11.306-10.998 11.306-6.868 0-10.888-5.36-10.888-11.278 0-6.309 4.327-11.362 11.055-11.362 6.895.028 10.831 5.444 10.831 11.334zm-19.317.028c0 4.467 3.042 8.961 8.402 8.961 5.611 0 8.319-4.104 8.319-8.96 0-4.886-3.126-9.074-8.43-9.074-5.556 0-8.291 4.244-8.291 9.073zm43.409-.028c0 5.583-3.462 11.306-10.999 11.306-6.867 0-10.887-5.36-10.887-11.278 0-6.309 4.327-11.362 11.054-11.362 6.896.028 10.832 5.444 10.832 11.334zm-19.318.028c0 4.467 3.043 8.961 8.403 8.961 5.611 0 8.319-4.104 8.319-8.96 0-4.886-3.127-9.074-8.431-9.074-5.555 0-8.291 4.244-8.291 9.073zm23.31 20.267V19.931c0-1.786 0-3.6-.056-5.387h2.401c.084.697.139 2.15.139 4.187 1.284-2.54 3.992-4.802 8.71-4.802 5.862 0 9.938 4.802 9.938 10.971 0 6.728-4.578 11.641-10.552 11.641-4.913 0-6.867-2.261-8.096-4.383V45.53h-2.484v.028zm10.552-29.311c-5.611 0-8.151 4.075-8.151 9.128 0 4.913 2.652 8.821 8.067 8.821 5.444 0 8.068-4.578 8.068-9.268-.028-4.16-2.401-8.681-7.984-8.681z" fill="#000"/></svg>