<svg width="60" height="60" fill="none" xmlns="http://www.w3.org/2000/svg"><path d="M55.56 41.893c-3.447-2.771-6.133-4.062-8.448-4.062-2.826 0-4.677 1.876-6.633 3.864l-.635.641c-.26.258-.587.38-1.033.38-1.631 0-5.136-1.559-12.553-8.978-10.29-10.288-9.182-12.998-8.598-13.583l.632-.625c3.58-3.521 6.669-6.563-.19-15.091C15.703 1.453 13.356 0 10.93 0 7.658 0 5.16 2.63 2.953 4.952c-.375.393-.737.777-1.094 1.133C-.625 8.567-.62 13.991 1.876 20.6c2.743 7.27 8.158 15.178 15.253 22.27C29.77 55.512 41.783 60 48.227 60c2.503 0 4.47-.645 5.684-1.864.359-.355.74-.72 1.135-1.092 2.385-2.266 5.089-4.834 4.949-8.225-.097-2.341-1.548-4.606-4.435-6.926zM53.654 55.58c-.404.384-.8.76-1.17 1.129-.83.834-2.303 1.273-4.258 1.273-6.057 0-17.464-4.331-29.67-16.54C11.66 34.55 6.408 26.895 3.763 19.887c-2.14-5.67-2.33-10.527-.477-12.375.367-.369.743-.764 1.128-1.171 1.927-2.025 4.11-4.323 6.515-4.323 1.75 0 3.634 1.239 5.6 3.687 5.716 7.105 3.694 9.092.348 12.387l-.647.636c-2.67 2.676.063 7.898 8.6 16.436 6.437 6.438 11.012 9.568 13.98 9.57.99 0 1.816-.327 2.46-.972l.645-.65c1.794-1.824 3.214-3.264 5.196-3.264 1.806 0 4.156 1.182 7.185 3.616 2.373 1.908 3.611 3.736 3.682 5.439.103 2.477-2.248 4.71-4.324 6.678z" fill="#000"/></svg>