<svg width="827" height="163" fill="none" xmlns="http://www.w3.org/2000/svg"><path fill-rule="evenodd" clip-rule="evenodd" d="M263.8 49.61l-3.2 4.5h-14.1v66.301c0 3.351.486 4.565 1.648 7.471l.052.129h-12.5c.886-1.612.864-2.769.821-4.936v-.01c-.01-.52-.021-1.098-.021-1.754v-67.3h-6.7c-2.3 0-4.3 1-6.2 3l-.9-.4 3.2-5.5h11c-.3-3-1.4-6.4-3.4-8.4v-1.2l13.3-16.3c1.1-3.1 1-6.3-.1-9.3-3-8.4-14.2-14.1-27.2-13.8-15.7 0-28 6.8-32.3 17.7-3.6 9.8.3 20.9 10.6 29.9.9.7 3.7 2.5 5.9 3.9 1.3.8 2.4 1.5 3 1.9l.2.2a.393.393 0 01.047.056l.009.013.012.019.018.034.014.028c.025.05.05.1.1.15 2.5 1.8 4.4 4 5.6 7-2.297 1.551-4.477 4.605-6.758 7.799l-.002.002c-1.393 1.951-2.823 3.954-4.34 5.699l-1.2-.8c2-2.5 3.1-5.5 3.1-8.8 0-9.4-11.1-13.9-21.5-13.9-8.2 0-13.6 5.7-13.6 14.4 0 8.3 6.5 12.7 20.6 17 17.6 5.4 24.9 11.6 24.9 24 0 12.7-10.6 21.5-27.9 21.5-13.5 0-23.7-5.9-29.4-17.8 3.6-4.6 6.2-11.1 6.2-19.1h1.2c.1 9 2.5 18 6.8 24.5 3.9 5.9 9.5 9.5 16.6 9.5 9.5 0 17.2-7.6 17.2-15.6 0-9.4-8.7-14.5-19.7-18.1-15.9-5.2-24.1-12.2-24.1-23.2 0-10.3 9-19.7 23.5-19.7 4.4 0 8.8.4 12.9 1.3-.3-.2-.5-.4-.7-.5-10.9-9.5-15.1-21.5-11.1-32.1 4.4-11.8 17.4-19.1 34-19.1 14.1-.3 25.8 5.8 29.1 15.1.6 1.9 1.2 4.5.7 7.6.043 0-.06.476-.248 1.347-.693 3.224-2.552 11.857-2.552 21.853v5.2h7.3c4.3 0 7.3-.7 9.3-2.1l.8.6zm-152.4 1c-18.9 0-37.6 12.8-37.6 38.7 0 26.601 20 39.901 39.3 39.901 18.7 0 37.3-13.2 37.3-39 0-26.6-19.8-39.6-39-39.6zm5.5 75.001c-15.3 0-32.5-15.2-32.5-42.7 0-20.3 11.9-29.1 23.7-29.1 15.3 0 31.4 15.2 31.4 42.4-.1 20.1-10.7 29.4-22.6 29.4zm-62.4-48.7l-14.4 37.4-17.8-45.6c-3.4-8.8-3.9-12.6-1.7-17.6H0c6.2 5 9 10.4 13.6 22.3l22.5 57.7h1.1c1.1-5 5.1-9.8 7-10.4.5-2.3 1.4-5.1 2.3-7.4l15.6-40.5c3.1-8 7.4-18.6 10.4-21.6H54.2c7.1 4.9 5.2 12.7.3 25.7zm245.6-26.3c-18.9 0-37.6 12.8-37.6 38.7 0 26.6 20 39.9 39.3 39.9 18.7 0 37.3-13.2 37.3-39 0-26.6-19.8-39.6-39-39.6zm5.4 75c-15.3 0-32.5-15.2-32.5-42.7 0-20.3 11.9-29.1 23.7-29.1 15.3 0 31.4 15.2 31.4 42.4 0 20.1-10.7 29.4-22.6 29.4zm70.8-49.8l24.6 39.9c5.3 8.5 8.6 10.9 16.6 11.5v.9h-20.8l-27.8-43.6-8.4 9.6v26.2c0 3.4.3 4.6 1.5 7.6h-12.4c1.011-1.839 1.008-3.087 1.001-5.919l-.001-.781v-72.7c0-8.8 0-15.3-3-19v-1.2l13.9-23.8 1.3.5c-2 7-2.2 10.7-2.2 23.4v59.2l14.1-16.4c10-11.5 11.2-13.1 13.5-20.1h22.3v.9c-12 1.2-15.3 2.1-23.7 11.9l-10.5 11.9zm146.1 29.3c-4.1 13.7-16.1 25.2-35.9 25.2-26.1 0-39.3-18.3-39.3-40.1 0-22.4 14.9-41 39.6-41 23.3 0 33.5 14.6 35.5 25.6h-8.9c-3.4-8.7-10.6-17.6-27-17.6-18.3 0-29.9 13.7-29.9 32.7 0 18 11.2 32.2 30.1 32.2 14.4 0 22.6-7.1 26.9-17h8.9zm50.9 25.2c27 0 39.4-20.5 39.4-40.5 0-21.1-14.1-40.5-38.8-40.6-24.1 0-39.6 18.1-39.6 40.7 0 21.2 14.4 40.4 39 40.4zm.3-8.3c-19.2 0-30.1-16.1-30.1-32.1 0-17.3 9.8-32.5 29.7-32.5 19 0 30.2 15 30.2 32.5 0 17.4-9.7 32.1-29.8 32.1zm125.4-32.2c0 20-12.4 40.5-39.4 40.5-24.6 0-39-19.2-39-40.4 0-22.6 15.5-40.7 39.6-40.7 24.7.1 38.8 19.5 38.8 40.6zm-69.2.1c0 16 10.9 32.1 30.1 32.1 20.1 0 29.8-14.7 29.8-32.1 0-17.5-11.2-32.5-30.2-32.5-19.9 0-29.7 15.2-29.7 32.5zm83.5-19.2v91.7h8.9v-47.9c4.4 7.6 11.4 15.7 29 15.7 21.4 0 37.8-17.6 37.8-41.7 0-22.1-14.6-39.3-35.6-39.3-16.9 0-26.6 8.1-31.2 17.2 0-7.3-.2-12.5-.5-15h-8.6c.2 6.4.2 12.9.2 19.3zm8.6 19.5c0-18.1 9.1-32.7 29.2-32.7 20 0 28.5 16.2 28.6 31.1 0 16.8-9.4 33.2-28.9 33.2-19.4 0-28.9-14-28.9-31.6z" fill="#000"/></svg>