<svg width="940" height="110" fill="none" xmlns="http://www.w3.org/2000/svg"><path d="M444.076 105.301l-7.425-31.698-.99.328-2.146 25.95-52.473 1.642-.165-88.36 24.752-7.226-.33-.986h-52.804l-.33.986 24.752 7.226.165 88.36-52.639-1.478-4.125-26.114-1.155-.328-4.95 31.698 37.952-1.807h53.629l38.282 1.807zM935 102.506l-25.757-7.226-55.78-90.324h-4.101L795.715 95.28l-22.148 7.226.328.985h48.561l.328-.985-22.968-7.226 51.35-85.726 53.483 85.726-25.757 7.226.328.985h55.452l.328-.985zM712.674 2c-40.194 0-68.576 22.17-68.576 53.373 0 30.382 27.069 51.895 65.459 51.895 41.999 0 71.858-22.663 71.858-54.687C781.415 22.857 752.868 2 712.674 2zm-5.742 3.777c38.226 0 69.725 20.036 69.725 51.074 0 25.62-27.726 46.804-61.522 46.804-36.257 0-66.279-20.692-66.279-52.388.164-24.962 26.085-45.49 58.076-45.49zM236.2 2c-40.194 0-68.576 22.17-68.576 53.373 0 30.382 27.07 51.895 65.459 51.895 41.999 0 71.858-22.663 71.858-54.687C304.941 22.857 276.395 2 236.2 2zm-5.742 3.777c38.226 0 69.725 20.036 69.725 51.074 0 25.62-27.726 46.804-61.522 46.804-36.257 0-66.279-20.692-66.279-52.388.164-24.962 26.085-45.49 58.076-45.49zm282.729 93.554c-15.914 0-34.058-4.762-46.403-11.4l-4.015 17.317 1.487.288 3.718-12.266c4.759 3.32 22.904 13.998 45.213 13.998 23.201 0 36.587-11.689 36.587-23.955 0-29.584-77.784-19.771-77.784-45.747 0-11.978 16.36-24.389 54.582-24.389 55.921 0 105.15 26.41 105.15 59.456 0 12.7-7.288 22.946-17.401 22.946-9.221 0-14.278-8.514-16.658-15.008l-1.338.577c1.933 7.071 8.031 16.596 18.145 16.596 9.221 0 19.483-7.937 19.483-25.688 0-41.273-56.07-67.105-108.868-67.105-35.843 0-55.326 11.978-55.326 31.46 0 39.109 77.784 25.832 77.784 46.757 0 9.236-15.617 16.163-34.356 16.163zM168.608 6.372c-55.35 4.122-69.188 72.901-88.936 96.349l.721 1.137c6.054-.285 5.478-.285 6.63-.285 30.991 0 40.793 3.695 52.324 3.695 16.865 0 21.766-7.958 21.766-14.637 0-7.247-5.766-12.931-10.234-16.484l-1.153.995c2.162 1.847 9.225 7.958 9.225 14.352 0 4.974-4.469 6.253-16.144 6.395-18.162.142-38.486.284-59.098 3.411 15.423-23.022 36.9-89.385 84.899-93.506V6.372zM44.214 4.952c-18.306 0-32.72 11.794-32.72 27.71 0 14.353 11.53 23.59 28.107 23.59 15.856 0 27.675-8.384 27.675-18.332 0-4.263-2.162-8.384-5.477-11.084l-1.01.995c2.884 2.7 4.325 6.252 4.325 9.237 0 8.242-11.531 13.5-25.369 13.5-16.72 0-26.09-7.816-26.09-17.764 0-12.22 13.982-20.037 30.559-20.037 28.54 0 49.585 18.048 54.774 42.774C79.817 78.847 47.96 99.168 25.043 99.168c-7.063 0-13.261-1.99-18.595-5.968l-1.153.852c4.036 6.963 10.378 12.506 20.18 12.506 20.468 0 55.062-24.443 75.675-51.017-6.487-29.274-28.973-50.59-56.936-50.59z" fill="#000"/></svg>