<svg width="827" height="163" fill="none" xmlns="http://www.w3.org/2000/svg"><path fill-rule="evenodd" clip-rule="evenodd" d="M563.2 112.8l3.2-4.5h14.1V42c0-3.351-.486-4.565-1.648-7.471l-.052-.129h12.5c-.886 1.611-.864 2.768-.821 4.935v.01c.01.52.021 1.099.021 1.755v67.3h6.7c2.3 0 4.3-1 6.2-3l.9.4-3.2 5.5h-11c.3 3 1.4 6.4 3.4 8.4v1.2l-13.3 16.3c-1.1 3.1-1 6.3.1 9.3 3 8.4 14.2 14.1 27.2 13.8 15.7 0 28-6.8 32.3-17.7 3.6-9.8-.3-20.9-10.6-29.9-.9-.7-3.7-2.5-5.9-3.9-1.3-.8-2.4-1.5-3-1.9l-.2-.2a.393.393 0 01-.047-.057l-.009-.013-.012-.018-.018-.034-.014-.028a.523.523 0 00-.1-.15c-2.5-1.8-4.4-4-5.6-7 2.297-1.552 4.477-4.606 6.758-7.8l.002-.002c1.393-1.951 2.823-3.954 4.34-5.698l1.2.8c-2 2.5-3.1 5.5-3.1 8.8 0 9.4 11.1 13.9 21.5 13.9 8.2 0 13.6-5.7 13.6-14.4 0-8.3-6.5-12.7-20.6-17-17.6-5.4-24.9-11.6-24.9-24 0-12.7 10.6-21.5 27.9-21.5 13.5 0 23.7 5.9 29.4 17.8-3.6 4.6-6.2 11.1-6.2 19.1H663c-.1-9-2.5-18-6.8-24.5-3.9-5.9-9.5-9.5-16.6-9.5-9.5 0-17.2 7.6-17.2 15.6 0 9.4 8.7 14.5 19.7 18.1 15.9 5.2 24.1 12.2 24.1 23.2 0 10.3-9 19.7-23.5 19.7-4.4 0-8.8-.4-12.9-1.3.3.2.5.4.7.5 10.9 9.5 15.1 21.5 11.1 32.1-4.4 11.8-17.4 19.1-34 19.1-14.1.3-25.8-5.8-29.1-15.1-.6-1.9-1.2-4.5-.7-7.6-.043 0 .06-.476.248-1.348.693-3.223 2.552-11.856 2.552-21.852v-5.2h-7.3c-4.3 0-7.3.7-9.3 2.1l-.8-.6zm152.4-1c18.9 0 37.6-12.8 37.6-38.7 0-26.6-20-39.9-39.3-39.9-18.7 0-37.3 13.2-37.3 39 0 26.6 19.8 39.6 39 39.6zm-5.5-75c15.3 0 32.5 15.2 32.5 42.7 0 20.3-11.9 29.1-23.7 29.1-15.3 0-31.4-15.2-31.4-42.4.1-20.1 10.7-29.4 22.6-29.4zm62.4 48.7l14.4-37.4 17.8 45.6c3.4 8.8 3.9 12.6 1.7 17.6H827c-6.2-5-9-10.4-13.6-22.3l-22.5-57.7h-1.1c-1.1 5-5.1 9.8-7 10.4-.5 2.3-1.4 5.1-2.3 7.4l-15.6 40.5c-3.1 8-7.4 18.6-10.4 21.6h18.3c-7.1-4.9-5.2-12.7-.3-25.7zm-245.6 26.3c18.9 0 37.6-12.8 37.6-38.7 0-26.6-20-39.9-39.3-39.9-18.7 0-37.3 13.2-37.3 39 0 26.6 19.8 39.6 39 39.6zm-5.4-75c15.3 0 32.5 15.2 32.5 42.7 0 20.3-11.9 29.1-23.7 29.1-15.3 0-31.4-15.2-31.4-42.4 0-20.1 10.7-29.4 22.6-29.4zm-70.8 49.8l-24.6-39.9c-5.3-8.5-8.6-10.9-16.6-11.5v-.9h20.8l27.8 43.6 8.4-9.6V42.1c0-3.4-.3-4.6-1.5-7.6h12.4c-1.011 1.839-1.008 3.086-1.001 5.918l.001.782v72.7c0 8.8 0 15.3 3 19v1.2l-13.9 23.8-1.3-.5c2-7 2.2-10.7 2.2-23.4V74.8l-14.1 16.4c-10 11.5-11.2 13.1-13.5 20.1h-22.3v-.9c12-1.2 15.3-2.1 23.7-11.9l10.5-11.9zM304.6 57.3c4.1-13.7 16.1-25.2 35.9-25.2 26.1 0 39.3 18.3 39.3 40.1 0 22.4-14.9 41-39.6 41-23.3 0-33.5-14.6-35.5-25.6h8.9c3.4 8.7 10.6 17.6 27 17.6 18.3 0 29.9-13.7 29.9-32.7 0-18-11.2-32.2-30.1-32.2-14.4 0-22.6 7.1-26.9 17h-8.9zm-50.9-25.2c-27 0-39.4 20.5-39.4 40.5 0 21.1 14.1 40.5 38.8 40.6 24.1 0 39.6-18.1 39.6-40.7 0-21.2-14.4-40.4-39-40.4zm-.3 8.3c19.2 0 30.1 16.1 30.1 32.1 0 17.3-9.8 32.5-29.7 32.5-19 0-30.2-15-30.2-32.5 0-17.4 9.7-32.1 29.8-32.1zM128 72.6c0-20 12.4-40.5 39.4-40.5 24.6 0 39 19.2 39 40.4 0 22.6-15.5 40.7-39.6 40.7-24.7-.1-38.8-19.5-38.8-40.6zm69.2-.1c0-16-10.9-32.1-30.1-32.1-20.1 0-29.8 14.7-29.8 32.1 0 17.5 11.2 32.5 30.2 32.5 19.9 0 29.7-15.2 29.7-32.5zm-83.5 19.2V0h-8.9v47.9c-4.4-7.6-11.4-15.7-29-15.7C54.4 32.2 38 49.8 38 73.9c0 22.1 14.6 39.3 35.6 39.3 16.9 0 26.6-8.1 31.2-17.2 0 7.3.2 12.5.5 15h8.6c-.2-6.4-.2-12.9-.2-19.3zm-8.6-19.5c0 18.1-9.1 32.7-29.2 32.7-20 0-28.5-16.2-28.6-31.1 0-16.8 9.4-33.2 28.9-33.2 19.4 0 28.9 14 28.9 31.6z" fill="#000"/></svg>