<svg width="618" height="109" viewBox="0 0 618 109" fill="none" xmlns="http://www.w3.org/2000/svg">
<path d="M9 54.9406C9 84.5011 35.3891 107 72.2683 107C97.3462 107 118.162 99.1172 132.095 87.1287L131.275 85.3223C120.621 95.0115 99.313 103.223 79.4802 103.223C40.962 103.223 13.7533 83.3516 13.7533 50.6708C13.7533 26.5297 40.6342 5.34468 73.7435 5.34468C94.8875 5.34468 113.737 11.7494 124.063 20.4534L125.538 48.0432L126.686 48.3716L135.209 20.1249C117.343 8.79339 99.477 1.73172 80.7915 1.73172C36.8643 1.73172 9 23.2452 9 54.9406Z" fill="black"/>
<path d="M235.092 107C275.25 107 303.606 84.8296 303.606 53.6268C303.606 23.2452 276.561 1.73172 238.207 1.73172C196.246 1.73172 166.415 24.3948 166.415 56.4187C166.415 86.1434 194.935 107 235.092 107ZM240.829 103.223C202.639 103.223 171.169 83.1873 171.169 52.1488C171.169 26.5297 198.869 5.34468 232.634 5.34468C268.857 5.34468 298.853 26.037 298.853 57.7325C298.689 82.6947 272.791 103.223 240.829 103.223Z" fill="black"/>
<path d="M396.868 107C437.025 107 465.381 84.8296 465.381 53.6268C465.381 23.2452 438.337 1.73172 399.982 1.73172C358.022 1.73172 328.191 24.3948 328.191 56.4187C328.191 86.1434 356.711 107 396.868 107ZM402.605 103.223C364.414 103.223 332.944 83.1873 332.944 52.1488C332.944 26.5297 360.644 5.34468 394.409 5.34468C430.633 5.34468 460.628 26.037 460.628 57.7325C460.464 82.6947 434.567 103.223 402.605 103.223Z" fill="black"/>
<path d="M483.41 103.551L483.738 104.044L541.105 104.044L541.433 103.387L511.93 95.8327V61.017L562.577 61.017C593.884 60.8527 608.143 52.1488 608.143 32.4418C608.143 15.6908 590.769 5.5089 562.577 5.5089L483.738 5.5089L483.41 6.00157L507.996 13.7201V95.8327L483.41 103.551ZM511.93 56.7471V10.5999L557.66 9.12185C588.966 9.12185 604.21 16.8404 604.21 34.741C604.21 50.3423 589.95 57.7325 560.938 57.5682L511.93 56.7471Z" fill="black"/>
</svg>
