<svg width="618" height="109" viewBox="0 0 618 109" fill="none" xmlns="http://www.w3.org/2000/svg">
<path d="M608 53.7911C608 24.2306 581.611 1.73176 544.732 1.73175C519.654 1.73175 498.838 9.61455 484.905 21.603L485.725 23.4094C496.379 13.7202 517.687 5.50893 537.52 5.50893C576.038 5.50893 603.247 25.3802 603.247 58.0609C603.247 82.202 576.366 103.387 543.257 103.387C522.112 103.387 503.263 96.9823 492.937 88.2783L491.462 60.6885L490.314 60.3601L481.791 88.6068C499.657 99.9383 517.523 107 536.208 107C580.136 107 608 85.4865 608 53.7911Z" fill="black"/>
<path d="M381.908 1.73174C341.75 1.73173 313.394 23.9021 313.394 55.1049C313.394 85.4865 340.439 107 378.793 107C420.754 107 450.585 84.3369 450.585 52.3131C450.585 22.5883 422.065 1.73174 381.908 1.73174ZM376.171 5.50891C414.361 5.50892 445.831 25.5444 445.831 56.5829C445.831 82.202 418.131 103.387 384.366 103.387C348.143 103.387 318.147 82.6947 318.147 50.9992C318.311 26.037 344.209 5.50891 376.171 5.50891Z" fill="black"/>
<path d="M220.132 1.73172C179.975 1.73172 151.619 23.9021 151.619 55.1048C151.619 85.4865 178.663 107 217.018 107C258.978 107 288.809 84.3369 288.809 52.313C288.809 22.5883 260.289 1.73173 220.132 1.73172ZM214.395 5.5089C252.586 5.5089 284.056 25.5444 284.056 56.5829C284.056 82.202 256.356 103.387 222.591 103.387C186.367 103.387 156.372 82.6947 156.372 50.9992C156.536 26.037 182.433 5.5089 214.395 5.5089Z" fill="black"/>
<path d="M133.59 5.18044L133.262 4.68776L75.8947 4.68776L75.5668 5.34466L105.07 12.899L105.07 47.7147L54.4228 47.7147C23.1165 47.8789 8.85651 56.5829 8.85651 76.2899C8.85651 93.0408 26.2307 103.223 54.4228 103.223L133.262 103.223L133.59 102.73L109.004 95.0115L109.004 12.899L133.59 5.18044ZM105.07 51.9846L105.07 98.1318L59.34 99.6098C28.0337 99.6098 12.7903 91.8912 12.7903 73.9907C12.7903 58.3893 27.0502 50.9992 56.0619 51.1634L105.07 51.9846Z" fill="black"/>
</svg>
