<svg width="73" height="49" viewBox="0 0 73 49" fill="none" xmlns="http://www.w3.org/2000/svg">
<path d="M69.5084 0.148031H4.39136C2.46112 0.148031 0.899902 1.72344 0.899902 3.63948V45.5085C0.899902 47.4388 2.46112 49 4.39136 49H69.5084C71.4386 49 72.9998 47.4388 72.9998 45.5085V3.63948C72.9998 1.72344 71.4386 0.148031 69.5084 0.148031ZM68.6142 2.47567L36.9499 28.8745L5.27132 2.47567H68.6142ZM3.22754 45.3524V3.79561L28.1503 24.574L3.22754 45.3524ZM5.27132 46.6724L29.967 26.0927L36.9499 31.9117L43.9328 26.0927L68.6284 46.6724H5.27132ZM70.6864 45.3524L45.7495 24.574L70.6864 3.79561V45.3524Z" fill="black"/>
</svg>
