<svg width="1556" height="106" viewBox="0 0 1556 106" fill="none" xmlns="http://www.w3.org/2000/svg">
<path d="M490.924 1.96765L498.349 33.6655L499.339 33.337L501.485 7.38749L553.958 5.74512L554.123 94.1049L529.371 101.331L529.701 102.317L582.505 102.317L582.835 101.331L558.083 94.1049L557.918 5.74512L610.557 7.22324L614.682 33.337L615.837 33.6655L620.787 1.96765L582.835 3.77426L529.206 3.77426L490.924 1.96765Z" fill="black"/>
<path d="M0 4.76253L25.7572 11.9884L81.537 102.312H85.6384L139.285 11.9884L161.433 4.76253L161.105 3.77718L112.544 3.77718L112.216 4.76253L135.184 11.9884L83.8338 97.7139L30.3508 11.9884L56.1079 4.76253L55.7798 3.77718L0.328119 3.77718L0 4.76253Z" fill="black"/>
<path d="M222.326 105.268C262.52 105.268 290.902 83.0979 290.902 51.8951C290.902 21.5135 263.833 0 225.443 0C183.444 0 153.585 22.6631 153.585 54.6869C153.585 84.4117 182.132 105.268 222.326 105.268ZM228.068 101.491C189.842 101.491 158.343 81.4556 158.343 50.4171C158.343 24.798 186.069 3.61296 219.865 3.61296C256.122 3.61296 286.144 24.3053 286.144 56.0007C285.98 80.9629 260.059 101.491 228.068 101.491Z" fill="black"/>
<path d="M698.8 105.268C738.994 105.268 767.376 83.0979 767.376 51.8951C767.376 21.5135 740.306 0 701.917 0C659.918 0 630.059 22.6631 630.059 54.6869C630.059 84.4117 658.605 105.268 698.8 105.268ZM704.542 101.491C666.316 101.491 634.817 81.4556 634.817 50.4171C634.817 24.798 662.543 3.61296 696.339 3.61296C732.596 3.61296 762.618 24.3053 762.618 56.0007C762.454 80.9629 736.533 101.491 704.542 101.491Z" fill="black"/>
<path d="M421.813 7.93713C437.727 7.93713 455.871 12.6994 468.216 19.3377L472.231 2.02036L470.744 1.73174L467.026 13.9982C462.267 10.679 444.122 0 421.813 0C398.612 0 385.226 11.6892 385.226 23.9557C385.226 53.5395 463.01 43.7264 463.01 69.7024C463.01 81.6802 446.65 94.091 408.428 94.091C352.507 94.091 303.278 67.682 303.278 34.6347C303.278 21.9353 310.566 11.6892 320.679 11.6892C329.9 11.6892 334.957 20.2036 337.337 26.6976L338.675 26.1204C336.742 19.0491 330.644 9.52455 320.53 9.52455C311.309 9.52455 301.047 17.4617 301.047 35.212C301.047 76.485 357.117 102.317 409.915 102.317C445.758 102.317 465.241 90.3389 465.241 70.8569C465.241 31.7485 387.457 45.0252 387.457 24.1C387.457 14.8641 403.074 7.93713 421.813 7.93713Z" fill="black"/>
<path d="M766.392 100.896C821.742 96.7746 835.58 27.995 855.327 4.54741L854.607 3.41056C848.553 3.69478 849.129 3.69478 847.976 3.69478C816.986 3.69478 807.184 0 795.653 0C778.788 0 773.887 7.95797 773.887 14.637C773.887 21.8844 779.653 27.5687 784.121 31.1214L785.274 30.1266C783.112 28.2792 776.049 22.1686 776.049 15.7738C776.049 10.8001 780.518 9.52115 792.193 9.37904C810.355 9.23693 830.679 9.09483 851.291 5.96848C835.868 28.9898 814.391 95.3536 766.392 99.4747V100.896ZM890.786 102.317C909.093 102.317 923.507 90.5219 923.507 74.606C923.507 60.2532 911.975 51.0163 895.399 51.0163C879.543 51.0163 867.724 59.4006 867.724 69.348C867.724 73.6112 869.886 77.7323 873.201 80.4324L874.21 79.4376C871.327 76.7376 869.886 73.1849 869.886 70.2007C869.886 61.9585 881.417 56.7006 895.255 56.7006C911.975 56.7006 921.345 64.5164 921.345 74.4639C921.345 86.6851 907.363 94.5009 890.786 94.5009C862.246 94.5009 841.202 76.4534 836.012 51.7268C855.183 28.4213 887.039 8.10008 909.957 8.10008C917.02 8.10008 923.219 10.0896 928.552 14.0686L929.705 13.2159C925.669 6.2527 919.327 0.710533 909.525 0.710533C889.057 0.710533 854.463 25.1529 833.85 51.7268C840.337 81.0008 862.823 102.317 890.786 102.317Z" fill="black"/>
<path d="M1555.51 52.0594C1555.51 22.4989 1529.12 6.58569e-05 1492.24 6.26328e-05C1467.16 6.04405e-05 1446.34 7.88285 1432.41 19.8713L1433.23 21.6778C1443.88 11.9885 1465.19 3.77724 1485.03 3.77724C1523.54 3.77724 1550.75 23.6485 1550.75 56.3292C1550.75 80.4703 1523.87 101.655 1490.76 101.655C1469.62 101.655 1450.77 95.2506 1440.44 86.5466L1438.97 58.9568L1437.82 58.6284L1429.3 86.8751C1447.16 98.2066 1465.03 105.268 1483.71 105.268C1527.64 105.268 1555.51 83.7548 1555.51 52.0594Z" fill="black"/>
<path d="M1329.41 4.83983e-05C1289.26 4.48876e-05 1260.9 22.1704 1260.9 53.3732C1260.9 83.7548 1287.94 105.268 1326.3 105.268C1368.26 105.268 1398.09 82.6052 1398.09 50.5814C1398.09 20.8566 1369.57 5.1909e-05 1329.41 4.83983e-05ZM1323.68 3.77722C1361.87 3.77723 1393.34 23.8127 1393.34 54.8512C1393.34 80.4703 1365.64 101.655 1331.87 101.655C1295.65 101.655 1265.65 80.963 1265.65 49.2675C1265.82 24.3053 1291.71 3.77722 1323.68 3.77722Z" fill="black"/>
<path d="M1167.64 3.42554e-05C1127.48 3.07448e-05 1099.12 22.1704 1099.12 53.3732C1099.12 83.7548 1126.17 105.268 1164.52 105.268C1206.48 105.268 1236.31 82.6052 1236.31 50.5814C1236.31 20.8566 1207.79 3.77661e-05 1167.64 3.42554e-05ZM1161.9 3.77721C1200.09 3.77721 1231.56 23.8127 1231.56 54.8512C1231.56 80.4703 1203.86 101.655 1170.1 101.655C1133.87 101.655 1103.88 80.963 1103.88 49.2675C1104.04 24.3053 1129.94 3.77721 1161.9 3.77721Z" fill="black"/>
<path d="M1081.1 3.44875L1080.77 2.95607L1023.4 2.95607L1023.07 3.61297L1052.58 11.1673L1052.58 45.983L1001.93 45.983C970.622 46.1472 956.362 54.8512 956.362 74.5582C956.362 91.3091 973.736 101.491 1001.93 101.491L1080.77 101.491L1081.1 100.998L1056.51 93.2798L1056.51 11.1673L1081.1 3.44875ZM1052.58 50.2529L1052.58 96.4001L1006.85 97.8781C975.539 97.8781 960.296 90.1596 960.296 72.259C960.296 56.6576 974.556 49.2675 1003.57 49.4317L1052.58 50.2529Z" fill="black"/>
</svg>
