<svg width="1556" height="106" viewBox="0 0 1556 106" fill="none" xmlns="http://www.w3.org/2000/svg">
<path d="M0.200195 53.7326C0.200195 83.2931 26.5893 105.792 63.4685 105.792C88.5464 105.792 109.363 97.9091 123.295 85.9207L122.475 84.1142C111.821 93.8035 90.5132 102.015 70.6804 102.015C32.1622 102.015 4.95351 82.1435 4.95351 49.4627C4.95351 25.3217 31.8344 4.13664 64.9437 4.13664C86.0877 4.13664 104.937 10.5414 115.263 19.2453L116.738 46.8351L117.886 47.1636L126.409 18.9169C108.543 7.58536 90.6772 0.523682 71.9917 0.523682C28.0645 0.523682 0.200195 22.0372 0.200195 53.7326Z" fill="black"/>
<path d="M226.293 105.792C266.45 105.792 294.806 83.6216 294.806 52.4188C294.806 22.0372 267.761 0.523682 229.407 0.523682C187.447 0.523682 157.615 23.1867 157.615 55.2106C157.615 84.9353 186.135 105.792 226.293 105.792ZM232.029 102.015C193.839 102.015 162.369 81.9793 162.369 50.9408C162.369 25.3217 190.069 4.13664 223.834 4.13664C260.058 4.13664 290.053 24.829 290.053 56.5244C289.889 81.4866 263.991 102.015 232.029 102.015Z" fill="black"/>
<path d="M388.068 105.792C428.225 105.792 456.581 83.6216 456.581 52.4188C456.581 22.0372 429.537 0.523682 391.182 0.523682C349.222 0.523682 319.391 23.1867 319.391 55.2106C319.391 84.9353 347.911 105.792 388.068 105.792ZM393.805 102.015C355.614 102.015 324.144 81.9793 324.144 50.9408C324.144 25.3217 351.845 4.13664 385.61 4.13664C421.833 4.13664 451.828 24.829 451.828 56.5244C451.664 81.4866 425.767 102.015 393.805 102.015Z" fill="black"/>
<path d="M474.61 102.343L474.938 102.836L532.305 102.836L532.633 102.179L503.13 94.6246V59.8089L553.777 59.8089C585.084 59.6447 599.344 50.9408 599.344 31.2338C599.344 14.4828 581.969 4.30086 553.777 4.30086L474.938 4.30086L474.61 4.79354L499.196 12.5121V94.6246L474.61 102.343ZM503.13 55.5391V9.39184L548.86 7.91381C580.167 7.91381 595.41 15.6324 595.41 33.5329C595.41 49.1343 581.15 56.5244 552.138 56.3602L503.13 55.5391Z" fill="black"/>
<path d="M1064.78 103.824L1057.36 72.1265L1056.37 72.455L1054.22 98.4045L1001.75 100.047L1001.58 11.6871L1026.33 4.4606L1026 3.47518L973.2 3.47517L972.87 4.46059L997.622 11.6871L997.787 100.047L945.148 98.5687L941.023 72.455L939.868 72.1265L934.918 103.824L972.87 102.018L1026.5 102.018L1064.78 103.824Z" fill="black"/>
<path d="M1555.71 101.029L1529.95 93.8036L1474.17 3.47979L1470.07 3.47979L1416.42 93.8036L1394.27 101.029L1394.6 102.015L1443.16 102.015L1443.49 101.029L1420.52 93.8036L1471.87 8.07809L1525.35 93.8036L1499.6 101.029L1499.93 102.015L1555.38 102.015L1555.71 101.029Z" fill="black"/>
<path d="M1333.38 0.523731C1293.19 0.523727 1264.8 22.6941 1264.8 53.8969C1264.8 84.2785 1291.87 105.792 1330.26 105.792C1372.26 105.792 1402.12 83.1289 1402.12 51.1051C1402.12 21.3803 1373.57 0.523734 1333.38 0.523731ZM1327.64 4.30092C1365.86 4.30092 1397.36 24.3364 1397.36 55.3749C1397.36 80.994 1369.64 102.179 1335.84 102.179C1299.58 102.179 1269.56 81.4867 1269.56 49.7912C1269.72 24.829 1295.65 4.30092 1327.64 4.30092Z" fill="black"/>
<path d="M856.905 0.523689C816.711 0.523686 788.329 22.6941 788.329 53.8968C788.329 84.2784 815.399 105.792 853.788 105.792C895.787 105.792 925.646 83.1289 925.646 51.105C925.646 21.3803 897.1 0.523693 856.905 0.523689ZM851.163 4.30088C889.389 4.30088 920.888 24.3363 920.888 55.3749C920.888 80.994 893.162 102.179 859.366 102.179C823.109 102.179 793.087 81.4866 793.087 49.7912C793.251 24.829 819.172 4.30088 851.163 4.30088Z" fill="black"/>
<path d="M1133.89 97.8549C1117.98 97.8549 1099.83 93.0926 1087.49 86.4542L1083.47 103.772L1084.96 104.06L1088.68 91.7938C1093.44 95.1129 1111.58 105.792 1133.89 105.792C1157.09 105.792 1170.48 94.1028 1170.48 81.8363C1170.48 52.2525 1092.69 62.0656 1092.69 36.0896C1092.69 24.1117 1109.05 11.7009 1147.28 11.7009C1203.2 11.701 1252.43 38.1099 1252.43 71.1573C1252.43 83.8567 1245.14 94.1028 1235.03 94.1028C1225.8 94.1028 1220.75 85.5884 1218.37 79.0944L1217.03 79.6716C1218.96 86.7429 1225.06 96.2674 1235.17 96.2674C1244.4 96.2674 1254.66 88.3303 1254.66 70.58C1254.66 29.307 1198.59 3.4752 1145.79 3.47519C1109.95 3.47519 1090.46 15.453 1090.46 34.9351C1090.46 74.0435 1168.25 60.7668 1168.25 81.692C1168.25 90.9279 1152.63 97.8549 1133.89 97.8549Z" fill="black"/>
<path d="M789.313 4.8962C733.963 9.01729 720.125 77.7969 700.378 101.245L701.098 102.381C707.152 102.097 706.576 102.097 707.729 102.097C738.719 102.097 748.521 105.792 760.053 105.792C776.917 105.792 781.818 97.834 781.818 91.1549C781.818 83.9075 776.052 78.2232 771.584 74.6706L770.431 75.6653C772.593 77.5127 779.656 83.6233 779.656 90.0181C779.656 94.9918 775.187 96.2708 763.512 96.4129C745.35 96.555 725.026 96.6971 704.414 99.8234C719.837 76.8022 741.314 10.4384 789.313 6.31727L789.313 4.8962ZM664.919 3.47513C646.613 3.47513 632.198 15.27 632.198 31.1859C632.198 45.5387 643.73 54.7756 660.306 54.7756C676.162 54.7756 687.981 46.3913 687.981 36.4439C687.981 32.1807 685.819 28.0596 682.504 25.3595L681.495 26.3543C684.378 29.0543 685.819 32.607 685.819 35.5912C685.819 43.8334 674.288 49.0914 660.45 49.0914C643.73 49.0914 634.36 41.2755 634.36 31.328C634.36 19.1069 648.342 11.291 664.919 11.291C693.459 11.291 714.504 29.3385 719.693 54.0651C700.522 77.3706 668.666 97.6918 645.748 97.6918C638.685 97.6918 632.487 95.7023 627.153 91.7234L626 92.576C630.036 99.5392 636.378 105.081 646.18 105.081C666.648 105.081 701.242 80.6391 721.855 54.0651C715.368 24.7911 692.882 3.47514 664.919 3.47513Z" fill="black"/>
</svg>
