<svg width="219" height="45" viewBox="0 0 219 45" fill="none" xmlns="http://www.w3.org/2000/svg">
<path d="M15.0913 21.2969L11.1039 31.6532L6.17498 19.0263C5.2335 16.5895 5.09505 15.5373 5.70424 14.1528H0C1.71681 15.5373 2.49214 17.0326 3.76591 20.3277L9.99626 36.3052H10.3009C10.6055 34.9206 11.7131 33.5915 12.2392 33.4253C12.3776 32.7885 12.6269 32.0131 12.8761 31.3762L17.1958 20.1616C18.0542 17.9464 19.2449 15.0112 20.0756 14.1805H15.0082C16.9743 15.5373 16.4481 17.6972 15.0913 21.2969Z" fill="black"/>
<path d="M30.8473 14.0143C25.6138 14.0143 20.4357 17.5587 20.4357 24.7305C20.4357 32.0962 25.9738 35.779 31.318 35.779C36.4961 35.779 41.6466 32.1239 41.6466 24.9797C41.6466 17.614 36.1639 14.0143 30.8473 14.0143ZM32.3703 34.7821C28.1336 34.7821 23.3709 30.5732 23.3709 22.9583C23.3709 17.3371 26.666 14.9004 29.9335 14.9004C34.1701 14.9004 38.6283 19.1093 38.6283 26.6411C38.6006 32.2069 35.6654 34.7821 32.3703 34.7821Z" fill="black"/>
<path d="M72.1614 14.9835L73.0475 13.7374L72.8259 13.5713C72.2721 13.9589 71.4414 14.1528 70.2507 14.1528H68.2293V12.7129C68.2293 9.19617 69.06 6.28867 69.0047 6.28867C69.1431 5.43027 68.977 4.71031 68.8108 4.18419C67.897 1.60898 64.6573 -0.0801395 60.7529 0.00293199C56.1563 0.00293199 52.5565 2.02434 51.3381 5.29181C50.2305 8.22701 51.3935 11.5499 54.4118 14.1805C54.4672 14.2081 54.5225 14.2635 54.6056 14.3189C53.4703 14.0697 52.2519 13.9589 51.0335 13.9589C47.0184 13.9589 44.5263 16.5618 44.5263 19.414C44.5263 22.4599 46.7969 24.3982 51.1997 25.8382C54.2456 26.835 56.6547 28.2472 56.6547 30.8501C56.6547 33.0654 54.5225 35.1698 51.8919 35.1698C49.9259 35.1698 48.3753 34.173 47.2953 32.5392C46.1046 30.7394 45.4401 28.2472 45.4124 25.7551H45.0801C45.0801 27.9703 44.3601 29.7702 43.3633 31.044C44.9416 34.3391 47.7661 35.9729 51.5043 35.9729C56.2947 35.9729 59.2299 33.5361 59.2299 30.0194C59.2299 26.5858 57.2085 24.869 52.335 23.3737C48.4306 22.183 46.6308 20.9646 46.6308 18.6663C46.6308 16.2572 48.126 14.6789 50.3967 14.6789C53.2765 14.6789 56.3501 15.925 56.3501 18.5279C56.3501 19.4417 56.0455 20.2724 55.4917 20.9646L55.824 21.1862C56.9316 19.9124 57.8731 18.1402 58.8976 17.4479C58.5654 16.6172 58.0392 16.008 57.347 15.5096C57.3193 15.4819 57.3193 15.4542 57.2916 15.4265L57.2362 15.3712C57.0701 15.2604 56.7655 15.0666 56.4055 14.845C55.7963 14.4574 55.021 13.9589 54.7718 13.7651C51.9196 11.273 50.8397 8.19932 51.8366 5.48565C53.0273 2.46739 56.4332 0.584432 60.7806 0.584432C64.3804 0.501361 67.4817 2.07972 68.3124 4.40572C68.617 5.23643 68.6447 6.12253 68.3401 6.98093L64.6573 11.4945V11.8268C65.2111 12.3806 65.5157 13.3221 65.5987 14.1528H62.5528L61.6667 15.6757L61.9159 15.7865C62.442 15.2327 62.9958 14.9558 63.6327 14.9558H65.488V33.5915C65.488 34.533 65.571 34.8929 65.2664 35.4468H68.7278C68.3955 34.616 68.257 34.2837 68.257 33.3423V14.9835H72.1614Z" fill="black"/>
<path d="M83.099 14.0143C77.8655 14.0143 72.6874 17.5587 72.6874 24.7305C72.6874 32.0962 78.2255 35.779 83.5697 35.779C88.7479 35.779 93.8983 32.1239 93.8983 24.9797C93.8983 17.614 88.4156 14.0143 83.099 14.0143ZM84.5943 34.7821C80.3576 34.7821 75.5949 30.5732 75.5949 22.9583C75.5949 17.3371 78.89 14.9004 82.1575 14.9004C86.3942 14.9004 90.8523 19.1093 90.8523 26.6411C90.8523 32.2069 87.8895 34.7821 84.5943 34.7821Z" fill="black"/>
<path d="M111.011 32.0409L104.199 20.9924L107.107 17.6972C109.433 14.9836 110.347 14.7343 113.67 14.4021V14.1528H107.495C106.858 16.0912 106.525 16.5342 103.756 19.7186L99.852 24.2599V7.86711C99.852 4.35042 99.9073 3.32587 100.461 1.38754L100.101 1.24908L96.2522 7.83942V8.1717C97.0829 9.19625 97.0829 10.9961 97.0829 13.4329V33.5639C97.0829 34.5053 97.1106 34.8653 96.806 35.4191H100.24C99.9073 34.5884 99.8243 34.2561 99.8243 33.3147V26.0598L102.15 23.4015L109.848 35.4745H115.608V35.2253C113.393 35.0592 112.479 34.3946 111.011 32.0409Z" fill="black"/>
<path d="M144.655 29.1057C143.52 32.8993 140.197 36.0837 134.714 36.0837C127.487 36.0837 123.832 31.0163 123.832 24.9798C123.832 18.7771 127.958 13.6267 134.797 13.6267C141.249 13.6267 144.073 17.6695 144.627 20.7154H142.163C141.221 18.3064 139.228 15.8419 134.686 15.8419C129.619 15.8419 126.407 19.6355 126.407 24.8967C126.407 29.881 129.508 33.813 134.742 33.813C138.729 33.813 141 31.847 142.19 29.1057H144.655Z" fill="black"/>
<path d="M169.659 24.869C169.659 30.4071 166.226 36.0837 158.749 36.0837C151.938 36.0837 147.95 30.7671 147.95 24.8967C147.95 18.6387 152.242 13.6267 158.916 13.6267C165.755 13.6544 169.659 19.0264 169.659 24.869ZM150.498 24.8967C150.498 29.3272 153.516 33.7854 158.832 33.7854C164.398 33.7854 167.084 29.7149 167.084 24.8967C167.084 20.0509 163.983 15.8973 158.722 15.8973C153.211 15.8973 150.498 20.1063 150.498 24.8967Z" fill="black"/>
<path d="M193.556 24.869C193.556 30.4071 190.123 36.0837 182.646 36.0837C175.834 36.0837 171.847 30.7671 171.847 24.8967C171.847 18.6387 176.139 13.6267 182.812 13.6267C189.652 13.6544 193.556 19.0264 193.556 24.869ZM174.394 24.8967C174.394 29.3272 177.413 33.7854 182.729 33.7854C188.295 33.7854 190.981 29.7149 190.981 24.8967C190.981 20.0509 187.88 15.8973 182.619 15.8973C177.108 15.8973 174.394 20.1063 174.394 24.8967Z" fill="black"/>
<path d="M197.516 45V19.5802C197.516 17.808 197.516 16.0081 197.461 14.2359H199.842C199.925 14.9282 199.981 16.3681 199.981 18.3895C201.254 15.8696 203.94 13.6267 208.62 13.6267C214.435 13.6267 218.478 18.3895 218.478 24.5091C218.478 31.1825 213.937 36.056 208.011 36.056C203.137 36.056 201.199 33.8131 199.981 31.7086V44.9723H197.516V45ZM207.983 15.925C202.417 15.925 199.898 19.9678 199.898 24.9798C199.898 29.8533 202.528 33.73 207.9 33.73C213.3 33.73 215.903 29.1888 215.903 24.5368C215.875 20.4109 213.521 15.925 207.983 15.925Z" fill="black"/>
</svg>
