<svg width="222" height="46" viewBox="0 0 222 46" fill="none" xmlns="http://www.w3.org/2000/svg">
<path d="M15.4267 21.7702L11.3506 32.3566L6.3122 19.4491C5.3498 16.9582 5.20827 15.8826 5.831 14.4673H0C1.75496 15.8826 2.54752 17.4111 3.84959 20.7795L10.2184 37.1119H10.5298C10.8411 35.6967 11.9734 34.338 12.5112 34.1681C12.6527 33.5171 12.9075 32.7245 13.1622 32.0735L17.5779 20.6096C18.4554 18.3452 19.6726 15.3448 20.5217 14.4956H15.3418C17.3515 15.8826 16.8137 18.0904 15.4267 21.7702Z" fill="black"/>
<path d="M31.5326 14.3257C26.1828 14.3257 20.8896 17.9488 20.8896 25.28C20.8896 32.8094 26.5508 36.5741 32.0138 36.5741C37.307 36.5741 42.5719 32.8377 42.5719 25.5348C42.5719 18.0054 36.9674 14.3257 31.5326 14.3257ZM33.0895 35.5551C28.7587 35.5551 23.8901 31.2526 23.8901 23.4685C23.8901 17.7224 27.2585 15.2315 30.5985 15.2315C34.9293 15.2315 39.4866 19.534 39.4866 27.2331C39.4583 32.9226 36.4579 35.5551 33.0895 35.5551Z" fill="black"/>
<path d="M73.765 15.3165L74.6707 14.0427L74.4443 13.8729C73.8782 14.2691 73.029 14.4673 71.8119 14.4673H69.7455V12.9954C69.7455 9.40053 70.5947 6.42842 70.5381 6.42842C70.6796 5.55094 70.5098 4.81499 70.34 4.27718C69.4059 1.64474 66.0941 -0.0819204 62.103 0.00299715C57.4042 0.00299715 53.7244 2.06932 52.479 5.40941C51.3467 8.40983 52.5356 11.8065 55.6209 14.4956C55.6775 14.5239 55.7342 14.5805 55.8191 14.6371C54.6585 14.3824 53.4131 14.2691 52.1676 14.2691C48.0633 14.2691 45.5157 16.9299 45.5157 19.8454C45.5157 22.959 47.8368 24.9404 52.3375 26.4123C55.4511 27.4313 57.9137 28.8749 57.9137 31.5357C57.9137 33.8002 55.7341 35.9514 53.0451 35.9514C51.0354 35.9514 49.4503 34.9324 48.3463 33.2623C47.1292 31.4225 46.4498 28.8749 46.4215 26.3274H46.0819C46.0819 28.5919 45.3459 30.4318 44.3269 31.7338C45.9403 35.1022 48.8275 36.7723 52.6488 36.7723C57.5457 36.7723 60.5461 34.2814 60.5461 30.6865C60.5461 27.1766 58.4798 25.4216 53.498 23.8931C49.5069 22.676 47.667 21.4305 47.667 19.0811C47.667 16.6185 49.1955 15.0051 51.5166 15.0051C54.4604 15.0051 57.6023 16.2789 57.6023 18.9396C57.6023 19.8737 57.291 20.7229 56.7249 21.4305L57.0645 21.657C58.1968 20.3549 59.1592 18.5433 60.2065 17.8357C59.8668 16.9865 59.329 16.3638 58.6213 15.8543C58.593 15.826 58.593 15.7977 58.5647 15.7693L58.5081 15.7127C58.3383 15.5995 58.0269 15.4014 57.6589 15.1749C57.0362 14.7786 56.2437 14.2691 55.9889 14.071C53.0734 11.5235 51.9695 8.38152 52.9885 5.60755C54.2056 2.52222 57.6873 0.59742 62.1313 0.59742C65.811 0.512502 68.9813 2.12593 69.8305 4.50362C70.1418 5.3528 70.1701 6.25859 69.8588 7.13607L66.0941 11.7499V12.0896C66.6602 12.6557 66.9716 13.6181 67.0565 14.4673H63.9428L63.0371 16.0241L63.2918 16.1373C63.8296 15.5712 64.3957 15.2881 65.0468 15.2881H66.9433V34.338C66.9433 35.3004 67.0282 35.6683 66.7168 36.2345H70.255C69.9154 35.3853 69.7738 35.0456 69.7738 34.0832V15.3165H73.765Z" fill="black"/>
<path d="M84.9457 14.3257C79.5959 14.3257 74.3027 17.9488 74.3027 25.28C74.3027 32.8094 79.9639 36.5741 85.4269 36.5741C90.7201 36.5741 95.985 32.8377 95.985 25.5348C95.985 18.0054 90.3804 14.3257 84.9457 14.3257ZM86.4742 35.5551C82.1434 35.5551 77.2748 31.2526 77.2748 23.4685C77.2748 17.7224 80.6432 15.2315 83.9833 15.2315C88.3141 15.2315 92.8714 19.534 92.8714 27.2331C92.8714 32.9226 89.8426 35.5551 86.4742 35.5551Z" fill="black"/>
<path d="M113.478 32.7529L106.515 21.4589L109.487 18.0905C111.865 15.3165 112.799 15.0618 116.195 14.7221V14.4674H109.883C109.232 16.4488 108.893 16.9017 106.062 20.1568L102.071 24.799V8.04195C102.071 4.44711 102.127 3.39979 102.694 1.41838L102.326 1.27686L98.3911 8.01364V8.35331C99.2403 9.40063 99.2403 11.2405 99.2403 13.7314V34.3098C99.2403 35.2722 99.2686 35.6401 98.9572 36.2062H102.467C102.127 35.3571 102.043 35.0174 102.043 34.055V26.6389L104.42 23.9215L112.289 36.2629H118.177V36.0081C115.912 35.8383 114.978 35.1589 113.478 32.7529Z" fill="black"/>
<path d="M147.576 29.5343C146.432 33.3588 143.082 36.5691 137.555 36.5691C130.269 36.5691 126.584 31.4605 126.584 25.3749C126.584 19.1218 130.743 13.9294 137.638 13.9294C144.143 13.9294 146.99 18.0051 147.548 21.0759H145.064C144.115 18.6472 142.105 16.1627 137.527 16.1627C132.418 16.1627 129.18 19.9872 129.18 25.2912C129.18 30.316 132.306 34.28 137.583 34.28C141.602 34.28 143.891 32.298 145.092 29.5343H147.576V29.5343Z" fill="black"/>
<path d="M172.784 25.2632C172.784 30.8464 169.323 36.5691 161.786 36.5691C154.918 36.5691 150.898 31.2093 150.898 25.2912C150.898 18.9822 155.225 13.9294 161.953 13.9294C168.848 13.9574 172.784 19.373 172.784 25.2632ZM153.467 25.2912C153.467 29.7577 156.509 34.2521 161.869 34.2521C167.48 34.2521 170.188 30.1485 170.188 25.2912C170.188 20.4059 167.062 16.2185 161.758 16.2185C156.202 16.2185 153.467 20.4617 153.467 25.2912Z" fill="black"/>
<path d="M196.876 25.2632C196.876 30.8464 193.414 36.5691 185.877 36.5691C179.01 36.5691 174.99 31.2093 174.99 25.2912C174.99 18.9822 179.317 13.9294 186.044 13.9294C192.94 13.9574 196.876 19.373 196.876 25.2632ZM177.558 25.2912C177.558 29.7577 180.601 34.2521 185.961 34.2521C191.572 34.2521 194.28 30.1485 194.28 25.2912C194.28 20.4059 191.153 16.2185 185.849 16.2185C180.294 16.2185 177.558 20.4617 177.558 25.2912Z" fill="black"/>
<path d="M200.868 45.558V19.9313C200.868 18.1447 200.868 16.3302 200.812 14.5436H203.213C203.297 15.2415 203.352 16.6931 203.352 18.731C204.636 16.1906 207.344 13.9294 212.062 13.9294C217.924 13.9294 222 18.731 222 24.9003C222 31.628 217.422 36.5412 211.448 36.5412C206.535 36.5412 204.581 34.28 203.352 32.1584V45.5301H200.868V45.558ZM211.42 16.2465C205.809 16.2465 203.269 20.3221 203.269 25.3749C203.269 30.2881 205.921 34.1963 211.336 34.1963C216.78 34.1963 219.404 29.6181 219.404 24.9282C219.376 20.7688 217.003 16.2465 211.42 16.2465Z" fill="black"/>
</svg>
