<svg width="60" height="60" viewBox="0 0 60 60" fill="none" xmlns="http://www.w3.org/2000/svg">
<path d="M55.5604 41.8927C52.1135 39.122 49.4273 37.8307 47.1118 37.8307C44.2856 37.8307 42.4354 39.7067 40.4786 41.6953L39.8439 42.336C39.5839 42.594 39.2565 42.716 38.8112 42.716C37.1797 42.716 33.6754 41.1573 26.2575 33.738C15.9687 23.45 17.0762 20.74 17.6595 20.1547L18.2922 19.53C21.8712 16.0087 24.9608 12.9673 18.1029 4.43867C15.7027 1.45267 13.3552 0 10.929 0C7.65743 0 5.15857 2.63067 2.95174 4.952C2.57704 5.34467 2.21501 5.72867 1.85765 6.08533C-0.625204 8.56667 -0.619203 13.9907 1.87565 20.6C4.61853 27.8693 10.0343 35.778 17.1288 42.8693C29.7711 55.5133 41.7827 60 48.2272 60C50.7301 60 52.6969 59.3553 53.911 58.136C54.2697 57.7813 54.6517 57.4167 55.0464 57.044C57.4313 54.778 60.1348 52.21 59.9948 48.8187C59.8981 46.478 58.4473 44.2133 55.5604 41.8927ZM53.6543 55.58C53.2503 55.964 52.8542 56.3407 52.4835 56.7087C51.6541 57.5427 50.1814 57.982 48.2265 57.982C42.1687 57.982 30.7619 53.6507 18.5556 41.4427C11.6604 34.5493 6.408 26.894 3.76313 19.886C1.62297 14.2167 1.43362 9.35933 3.28643 7.51067C3.65312 7.142 4.02915 6.74667 4.41385 6.34C6.34133 4.31467 8.52483 2.01667 10.929 2.01667C12.6792 2.01667 14.5633 3.256 16.5294 5.704C22.2446 12.8093 20.2231 14.796 16.8768 18.0907L16.2301 18.7273C13.5599 21.4033 16.2934 26.6253 24.8301 35.1633C31.2666 41.6013 35.8423 44.7307 38.8105 44.7327C39.7999 44.7327 40.626 44.406 41.27 43.7613L41.9147 43.1107C43.7095 41.2867 45.129 39.8473 47.1111 39.8473C48.9166 39.8473 51.2674 41.0293 54.2963 43.4633C56.6692 45.3707 57.9073 47.1993 57.978 48.902C58.0806 51.3787 55.7298 53.6113 53.6543 55.58Z" fill="black"/>
</svg>
