<svg width="827" height="163" viewBox="0 0 827 163" fill="none" xmlns="http://www.w3.org/2000/svg">
<path fill-rule="evenodd" clip-rule="evenodd" d="M263.8 49.6106L260.6 54.1106H246.5V120.411C246.5 123.762 246.986 124.976 248.148 127.882L248.2 128.011H235.7C236.586 126.399 236.564 125.242 236.521 123.075L236.521 123.065C236.511 122.545 236.5 121.967 236.5 121.311V54.0106H229.8C227.5 54.0106 225.5 55.0106 223.6 57.0106L222.7 56.6106L225.9 51.1106H236.9C236.6 48.1106 235.5 44.7105 233.5 42.7105V41.5106L246.8 25.2105C247.9 22.1106 247.8 18.9106 246.7 15.9106C243.7 7.51059 232.5 1.81058 219.5 2.11057C203.8 2.11057 191.5 8.91056 187.2 19.8106C183.6 29.6106 187.5 40.7105 197.8 49.7105C198.7 50.4106 201.5 52.2105 203.7 53.6106C205 54.4106 206.1 55.1106 206.7 55.5106L206.9 55.7105C206.919 55.7295 206.934 55.7484 206.947 55.7674L206.956 55.7802L206.968 55.799C206.974 55.8102 206.98 55.8214 206.986 55.8326L207 55.8606C207.025 55.9106 207.05 55.9605 207.1 56.0106C209.6 57.8106 211.5 60.0106 212.7 63.0106C210.403 64.5623 208.223 67.6164 205.942 70.81L205.94 70.8124C204.547 72.7635 203.117 74.7665 201.6 76.5106L200.4 75.7105C202.4 73.2105 203.5 70.2105 203.5 66.9106C203.5 57.5106 192.4 53.0106 182 53.0106C173.8 53.0106 168.4 58.7105 168.4 67.4106C168.4 75.7105 174.9 80.1106 189 84.4106C206.6 89.8106 213.9 96.0106 213.9 108.411C213.9 121.111 203.3 129.911 186 129.911C172.5 129.911 162.3 124.011 156.6 112.111C160.2 107.511 162.8 101.011 162.8 93.0106H164C164.1 102.011 166.5 111.011 170.8 117.511C174.7 123.411 180.3 127.011 187.4 127.011C196.9 127.011 204.6 119.411 204.6 111.411C204.6 102.011 195.9 96.9106 184.9 93.3106C169 88.1106 160.8 81.1106 160.8 70.1106C160.8 59.8106 169.8 50.4106 184.3 50.4106C188.7 50.4106 193.1 50.8106 197.2 51.7105C196.9 51.5106 196.7 51.3106 196.5 51.2105C185.6 41.7105 181.4 29.7105 185.4 19.1106C189.8 7.31058 202.8 0.0105918 219.4 0.0105918C233.5 -0.289457 245.2 5.81058 248.5 15.1106C249.1 17.0106 249.7 19.6106 249.2 22.7105C249.243 22.7105 249.14 23.1866 248.952 24.0584C248.259 27.2816 246.4 35.9146 246.4 45.9106V51.1106H253.7C258 51.1106 261 50.4106 263 49.0106L263.8 49.6106ZM111.4 50.6106C92.5 50.6106 73.8 63.4106 73.8 89.3106C73.8 115.911 93.8 129.211 113.1 129.211C131.8 129.211 150.4 116.011 150.4 90.2105C150.4 63.6106 130.6 50.6106 111.4 50.6106ZM116.9 125.611C101.6 125.611 84.4 110.411 84.4 82.9106C84.4 62.6106 96.3 53.8106 108.1 53.8106C123.4 53.8106 139.5 69.0106 139.5 96.2105C139.4 116.311 128.8 125.611 116.9 125.611ZM54.5 76.9106L40.1 114.311L22.3 68.7105C18.9 59.9106 18.4 56.1106 20.6 51.1106H0C6.19995 56.1106 9 61.5106 13.6 73.4106L36.1 131.111H37.2C38.3 126.111 42.3 121.311 44.2 120.711C44.7 118.411 45.6 115.611 46.5 113.311L62.1 72.8106C65.2 64.8106 69.5 54.2105 72.5 51.2105H54.2C61.3 56.1106 59.4 63.9106 54.5 76.9106ZM300.1 50.6106C281.2 50.6106 262.5 63.4106 262.5 89.3106C262.5 115.911 282.5 129.211 301.8 129.211C320.5 129.211 339.1 116.011 339.1 90.2105C339.1 63.6106 319.3 50.6106 300.1 50.6106ZM305.5 125.611C290.2 125.611 273 110.411 273 82.9106C273 62.6106 284.9 53.8106 296.7 53.8106C312 53.8106 328.1 69.0106 328.1 96.2105C328.1 116.311 317.4 125.611 305.5 125.611ZM376.3 75.8106L400.9 115.711C406.2 124.211 409.5 126.611 417.5 127.211V128.111H396.7L368.9 84.5106L360.5 94.1106V120.311C360.5 123.711 360.8 124.911 362 127.911H349.6C350.611 126.072 350.608 124.824 350.601 121.992C350.601 121.744 350.6 121.484 350.6 121.211V48.5106C350.6 39.7105 350.6 33.2105 347.6 29.5106V28.3106L361.5 4.51059L362.8 5.01059C360.8 12.0106 360.6 15.7105 360.6 28.4106V87.6106L374.7 71.2105C384.7 59.7105 385.9 58.1106 388.2 51.1106H410.5V52.0106C398.5 53.2105 395.2 54.1106 386.8 63.9106L376.3 75.8106ZM522.4 105.111C518.3 118.811 506.3 130.311 486.5 130.311C460.4 130.311 447.2 112.011 447.2 90.2105C447.2 67.8106 462.1 49.2105 486.8 49.2105C510.1 49.2105 520.3 63.8106 522.3 74.8106H513.4C510 66.1106 502.8 57.2105 486.4 57.2105C468.1 57.2105 456.5 70.9106 456.5 89.9106C456.5 107.911 467.7 122.111 486.6 122.111C501 122.111 509.2 115.011 513.5 105.111H522.4ZM573.3 130.311C600.3 130.311 612.7 109.811 612.7 89.8106C612.7 68.7105 598.6 49.3106 573.9 49.2105C549.8 49.2105 534.3 67.3106 534.3 89.9106C534.3 111.111 548.7 130.311 573.3 130.311ZM573.6 122.011C554.4 122.011 543.5 105.911 543.5 89.9106C543.5 72.6106 553.3 57.4106 573.2 57.4106C592.2 57.4106 603.4 72.4106 603.4 89.9106C603.4 107.311 593.7 122.011 573.6 122.011ZM699 89.8106C699 109.811 686.6 130.311 659.6 130.311C635 130.311 620.6 111.111 620.6 89.9106C620.6 67.3106 636.1 49.2105 660.2 49.2105C684.9 49.3106 699 68.7105 699 89.8106ZM629.8 89.9106C629.8 105.911 640.7 122.011 659.9 122.011C680 122.011 689.7 107.311 689.7 89.9106C689.7 72.4106 678.5 57.4106 659.5 57.4106C639.6 57.4106 629.8 72.6106 629.8 89.9106ZM713.3 70.7105V162.411H722.2V114.511C726.6 122.111 733.6 130.211 751.2 130.211C772.6 130.211 789 112.611 789 88.5106C789 66.4106 774.4 49.2105 753.4 49.2105C736.5 49.2105 726.8 57.3106 722.2 66.4106C722.2 59.1106 722 53.9106 721.7 51.4106H713.1C713.3 57.8106 713.3 64.3106 713.3 70.7105ZM721.9 90.2105C721.9 72.1106 731 57.5106 751.1 57.5106C771.1 57.5106 779.6 73.7105 779.7 88.6106C779.7 105.411 770.3 121.811 750.8 121.811C731.4 121.811 721.9 107.811 721.9 90.2105Z" fill="black"/>
</svg>
