<svg width="827" height="163" viewBox="0 0 827 163" fill="none" xmlns="http://www.w3.org/2000/svg">
<path fill-rule="evenodd" clip-rule="evenodd" d="M563.2 112.8L566.4 108.3L580.5 108.3L580.5 42C580.5 38.649 580.014 37.435 578.852 34.5286L578.8 34.4L591.3 34.4C590.414 36.0114 590.436 37.1683 590.479 39.3353L590.479 39.3452C590.489 39.8654 590.5 40.4436 590.5 41.1L590.5 108.4L597.2 108.4C599.5 108.4 601.5 107.4 603.4 105.4L604.3 105.8L601.1 111.3L590.1 111.3C590.4 114.3 591.5 117.7 593.5 119.7L593.5 120.9L580.2 137.2C579.1 140.3 579.2 143.5 580.3 146.5C583.3 154.9 594.5 160.6 607.5 160.3C623.2 160.3 635.5 153.5 639.8 142.6C643.4 132.8 639.5 121.7 629.2 112.7C628.3 112 625.5 110.2 623.3 108.8C622 108 620.9 107.3 620.3 106.9L620.1 106.7C620.081 106.681 620.066 106.662 620.053 106.643L620.044 106.63L620.032 106.612C620.026 106.6 620.02 106.589 620.014 106.578L620 106.55C619.975 106.5 619.95 106.45 619.9 106.4C617.4 104.6 615.5 102.4 614.3 99.4C616.597 97.8483 618.777 94.7942 621.058 91.6005L621.06 91.5982C622.453 89.647 623.883 87.6441 625.4 85.9L626.6 86.7C624.6 89.2 623.5 92.2 623.5 95.5C623.5 104.9 634.6 109.4 645 109.4C653.2 109.4 658.6 103.7 658.6 95C658.6 86.7 652.1 82.3 638 78C620.4 72.6 613.1 66.4 613.1 54C613.1 41.3 623.7 32.5 641 32.5C654.5 32.5 664.7 38.4 670.4 50.3C666.8 54.9 664.2 61.4 664.2 69.4L663 69.4C662.9 60.4 660.5 51.4 656.2 44.9C652.3 39 646.7 35.4 639.6 35.4C630.1 35.4 622.4 43 622.4 51C622.4 60.4 631.1 65.5 642.1 69.1C658 74.3 666.2 81.3 666.2 92.3C666.2 102.6 657.2 112 642.7 112C638.3 112 633.9 111.6 629.8 110.7C630.1 110.9 630.3 111.1 630.5 111.2C641.4 120.7 645.6 132.7 641.6 143.3C637.2 155.1 624.2 162.4 607.6 162.4C593.5 162.7 581.8 156.6 578.5 147.3C577.9 145.4 577.3 142.8 577.8 139.7C577.757 139.7 577.86 139.224 578.048 138.352C578.741 135.129 580.6 126.496 580.6 116.5L580.6 111.3L573.3 111.3C569 111.3 566 112 564 113.4L563.2 112.8ZM715.6 111.8C734.5 111.8 753.2 99 753.2 73.1C753.2 46.5 733.2 33.2 713.9 33.2C695.2 33.2 676.6 46.4 676.6 72.2C676.6 98.8 696.4 111.8 715.6 111.8ZM710.1 36.8C725.4 36.8 742.6 52 742.6 79.5C742.6 99.8 730.7 108.6 718.9 108.6C703.6 108.6 687.5 93.4 687.5 66.2C687.6 46.1 698.2 36.8 710.1 36.8ZM772.5 85.5L786.9 48.1L804.7 93.7C808.1 102.5 808.6 106.3 806.4 111.3L827 111.3C820.8 106.3 818 100.9 813.4 89L790.9 31.3L789.8 31.3C788.7 36.3 784.7 41.1 782.8 41.7C782.3 44 781.4 46.8 780.5 49.1L764.9 89.6C761.8 97.6 757.5 108.2 754.5 111.2L772.8 111.2C765.7 106.3 767.6 98.5 772.5 85.5ZM526.9 111.8C545.8 111.8 564.5 99 564.5 73.1C564.5 46.5 544.5 33.2 525.2 33.2C506.5 33.2 487.9 46.4 487.9 72.2C487.9 98.8 507.7 111.8 526.9 111.8ZM521.5 36.8C536.8 36.8 554 52 554 79.5C554 99.8 542.1 108.6 530.3 108.6C515 108.6 498.9 93.4 498.9 66.2C498.9 46.1 509.6 36.8 521.5 36.8ZM450.7 86.6L426.1 46.7C420.8 38.2 417.5 35.8 409.5 35.2L409.5 34.3L430.3 34.3L458.1 77.9L466.5 68.3L466.5 42.1C466.5 38.7 466.2 37.5 465 34.5L477.4 34.5C476.389 36.339 476.392 37.5861 476.399 40.4183C476.399 40.6663 476.4 40.9263 476.4 41.2L476.4 113.9C476.4 122.7 476.4 129.2 479.4 132.9L479.4 134.1L465.5 157.9L464.2 157.4C466.2 150.4 466.4 146.7 466.4 134L466.4 74.8L452.3 91.2C442.3 102.7 441.1 104.3 438.8 111.3L416.5 111.3L416.5 110.4C428.5 109.2 431.8 108.3 440.2 98.5L450.7 86.6ZM304.6 57.3C308.7 43.6 320.7 32.1 340.5 32.1C366.6 32.1 379.8 50.4 379.8 72.2C379.8 94.6 364.9 113.2 340.2 113.2C316.9 113.2 306.7 98.6 304.7 87.6L313.6 87.6C317 96.3 324.2 105.2 340.6 105.2C358.9 105.2 370.5 91.5 370.5 72.5C370.5 54.5 359.3 40.3 340.4 40.3C326 40.3 317.8 47.3999 313.5 57.3L304.6 57.3ZM253.7 32.1C226.7 32.1 214.3 52.6 214.3 72.6C214.3 93.7 228.4 113.1 253.1 113.2C277.2 113.2 292.7 95.1 292.7 72.5C292.7 51.3 278.3 32.1 253.7 32.1ZM253.4 40.3999C272.6 40.3999 283.5 56.5 283.5 72.5C283.5 89.8 273.7 105 253.8 105C234.8 105 223.6 90 223.6 72.5C223.6 55.1 233.3 40.3999 253.4 40.3999ZM128 72.5999C128 52.5999 140.4 32.0999 167.4 32.0999C192 32.0999 206.4 51.3 206.4 72.5C206.4 95.0999 190.9 113.2 166.8 113.2C142.1 113.1 128 93.7 128 72.5999ZM197.2 72.5C197.2 56.5 186.3 40.3999 167.1 40.3999C147 40.3999 137.3 55.0999 137.3 72.5C137.3 90 148.5 105 167.5 105C187.4 105 197.2 89.8 197.2 72.5ZM113.7 91.7L113.7 -3.39947e-05L104.8 -3.47728e-05L104.8 47.8999C100.4 40.3 93.3999 32.2 75.8001 32.2C54.3999 32.2 38 49.7999 38 73.8999C38 96 52.6001 113.2 73.6001 113.2C90.5 113.2 100.2 105.1 104.8 96C104.8 103.3 105 108.5 105.3 111L113.9 111C113.7 104.6 113.7 98.0999 113.7 91.7ZM105.1 72.2C105.1 90.3 96 104.9 75.8999 104.9C55.8999 104.9 47.3999 88.7 47.3001 73.7999C47.3001 57 56.7 40.5999 76.2 40.5999C95.6001 40.5999 105.1 54.5999 105.1 72.2Z" fill="black"/>
</svg>
