<svg width="940" height="110" viewBox="0 0 940 110" fill="none" xmlns="http://www.w3.org/2000/svg">
<path d="M444.076 105.301L436.651 73.6027L435.661 73.9312L433.515 99.8807L381.042 101.523L380.877 13.1633L405.629 5.93684L405.299 4.95142L352.495 4.95142L352.165 5.93684L376.917 13.1633L377.082 101.523L324.443 100.045L320.318 73.9312L319.163 73.6027L314.213 105.301L352.165 103.494L405.794 103.494L444.076 105.301Z" fill="black"/>
<path d="M935 102.506L909.243 95.2799L853.463 4.95608L849.362 4.95608L795.715 95.2798L773.567 102.506L773.895 103.491L822.456 103.491L822.784 102.506L799.816 95.2798L851.166 9.55438L904.649 95.2799L878.892 102.506L879.22 103.491L934.672 103.491L935 102.506Z" fill="black"/>
<path d="M712.674 2.00002C672.48 2.00002 644.098 24.1704 644.098 55.3731C644.098 85.7548 671.167 107.268 709.557 107.268C751.556 107.268 781.415 84.6052 781.415 52.5813C781.415 22.8566 752.868 2.00002 712.674 2.00002ZM706.932 5.77721C745.158 5.77721 776.657 25.8127 776.657 56.8512C776.657 82.4703 748.931 103.655 715.135 103.655C678.878 103.655 648.856 82.9629 648.856 51.2675C649.02 26.3053 674.941 5.77721 706.932 5.77721Z" fill="black"/>
<path d="M236.2 1.99998C196.006 1.99997 167.624 24.1704 167.624 55.3731C167.624 85.7547 194.694 107.268 233.083 107.268C275.082 107.268 304.941 84.6052 304.941 52.5813C304.941 22.8566 276.395 1.99998 236.2 1.99998ZM230.458 5.77717C268.684 5.77717 300.183 25.8126 300.183 56.8511C300.183 82.4702 272.457 103.655 238.661 103.655C202.404 103.655 172.382 82.9629 172.382 51.2675C172.546 26.3053 198.467 5.77716 230.458 5.77717Z" fill="black"/>
<path d="M513.187 99.3311C497.273 99.3311 479.129 94.5688 466.784 87.9305L462.769 105.248L464.256 105.536L467.974 93.27C472.733 96.5892 490.878 107.268 513.187 107.268C536.388 107.268 549.774 95.579 549.774 83.3126C549.774 53.7287 471.99 63.5419 471.99 37.5658C471.99 25.588 488.35 13.1772 526.572 13.1772C582.493 13.1772 631.722 39.5862 631.722 72.6335C631.722 85.3329 624.434 95.579 614.321 95.579C605.1 95.579 600.043 87.0647 597.663 80.5706L596.325 81.1479C598.258 88.2191 604.356 97.7437 614.47 97.7437C623.691 97.7437 633.953 89.8066 633.953 72.0563C633.953 30.7832 577.883 4.95146 525.085 4.95146C489.242 4.95145 469.759 16.9293 469.759 36.4113C469.759 75.5197 547.543 62.2431 547.543 83.1682C547.543 92.4042 531.926 99.3311 513.187 99.3311Z" fill="black"/>
<path d="M168.608 6.37248C113.258 10.4936 99.42 79.2732 79.6725 102.721L80.3933 103.858C86.4473 103.573 85.8706 103.573 87.0238 103.573C118.014 103.573 127.816 107.268 139.347 107.268C156.212 107.268 161.113 99.3102 161.113 92.6312C161.113 85.3838 155.347 79.6995 150.879 76.1468L149.726 77.1416C151.888 78.989 158.951 85.0996 158.951 91.4944C158.951 96.4681 154.482 97.7471 142.807 97.8892C124.645 98.0313 104.321 98.1734 83.7086 101.3C99.1318 78.2784 120.609 11.9146 168.608 7.79355L168.608 6.37248ZM44.2136 4.95141C25.9075 4.95141 11.4933 16.7463 11.4933 32.6622C11.4933 47.015 23.0246 56.2519 39.601 56.2519C55.4566 56.2519 67.2763 47.8676 67.2763 37.9202C67.2763 33.657 65.1142 29.5359 61.7989 26.8358L60.7899 27.8306C63.6727 30.5306 65.1142 34.0833 65.1142 37.0675C65.1142 45.3097 53.5828 50.5676 39.7451 50.5676C23.0246 50.5676 13.6554 42.7518 13.6554 32.8043C13.6554 20.5831 27.6372 12.7673 44.2136 12.7673C72.7537 12.7673 93.7985 30.8148 98.9876 55.5414C79.8167 78.8469 47.9612 99.1681 25.0426 99.1681C17.9796 99.1681 11.7815 97.1786 6.44821 93.1996L5.29506 94.0523C9.33107 101.015 15.6734 106.558 25.4751 106.558C45.9433 106.558 80.5374 82.1153 101.15 55.5414C94.6633 26.2674 72.1772 4.95142 44.2136 4.95141Z" fill="black"/>
</svg>
