<svg width="940" height="110" viewBox="0 0 940 110" fill="none" xmlns="http://www.w3.org/2000/svg">
<path d="M490.924 3.96765L498.349 35.6655L499.339 35.337L501.485 9.38749L553.958 7.74512L554.123 96.1049L529.371 103.331L529.701 104.317L582.505 104.317L582.835 103.331L558.083 96.1049L557.918 7.74512L610.557 9.22324L614.682 35.337L615.837 35.6655L620.787 3.96765L582.835 5.77426L529.206 5.77426L490.924 3.96765Z" fill="black"/>
<path d="M0 6.76253L25.7572 13.9884L81.5369 104.312H85.6384L139.285 13.9884L161.433 6.76253L161.105 5.77718L112.544 5.77718L112.216 6.76253L135.184 13.9884L83.8338 99.7139L30.3508 13.9884L56.1079 6.76253L55.7798 5.77718L0.328119 5.77718L0 6.76253Z" fill="black"/>
<path d="M222.326 107.268C262.52 107.268 290.902 85.0979 290.902 53.8951C290.902 23.5135 263.833 2 225.443 2C183.444 2 153.585 24.6631 153.585 56.6869C153.585 86.4117 182.132 107.268 222.326 107.268ZM228.068 103.491C189.842 103.491 158.343 83.4556 158.343 52.4171C158.343 26.798 186.069 5.61296 219.865 5.61296C256.122 5.61296 286.144 26.3053 286.144 58.0007C285.98 82.9629 260.059 103.491 228.068 103.491Z" fill="black"/>
<path d="M698.8 107.268C738.994 107.268 767.376 85.0979 767.376 53.8951C767.376 23.5135 740.306 2 701.917 2C659.918 2 630.059 24.6631 630.059 56.6869C630.059 86.4117 658.605 107.268 698.8 107.268ZM704.542 103.491C666.316 103.491 634.817 83.4556 634.817 52.4171C634.817 26.798 662.543 5.61296 696.339 5.61296C732.596 5.61296 762.618 26.3053 762.618 58.0007C762.454 82.9629 736.533 103.491 704.542 103.491Z" fill="black"/>
<path d="M421.813 9.93713C437.727 9.93713 455.871 14.6994 468.216 21.3377L472.231 4.02036L470.744 3.73174L467.026 15.9982C462.267 12.679 444.122 2 421.813 2C398.612 2 385.226 13.6892 385.226 25.9557C385.226 55.5395 463.01 45.7264 463.01 71.7024C463.01 83.6802 446.65 96.091 408.428 96.091C352.507 96.091 303.278 69.682 303.278 36.6347C303.278 23.9353 310.566 13.6892 320.679 13.6892C329.9 13.6892 334.957 22.2036 337.337 28.6976L338.675 28.1204C336.742 21.0491 330.644 11.5245 320.53 11.5245C311.309 11.5245 301.047 19.4617 301.047 37.212C301.047 78.485 357.117 104.317 409.915 104.317C445.758 104.317 465.241 92.3389 465.241 72.8569C465.241 33.7485 387.457 47.0252 387.457 26.1C387.457 16.8641 403.074 9.93713 421.813 9.93713Z" fill="black"/>
<path d="M766.392 102.896C821.742 98.7746 835.58 29.995 855.327 6.54741L854.607 5.41056C848.553 5.69478 849.129 5.69478 847.976 5.69478C816.986 5.69478 807.184 2 795.653 2C778.788 2 773.887 9.95797 773.887 16.637C773.887 23.8844 779.653 29.5687 784.121 33.1214L785.274 32.1266C783.112 30.2792 776.049 24.1686 776.049 17.7738C776.049 12.8001 780.518 11.5211 792.193 11.379C810.355 11.2369 830.679 11.0948 851.291 7.96848C835.868 30.9898 814.391 97.3536 766.392 101.475V102.896ZM890.786 104.317C909.093 104.317 923.507 92.5219 923.507 76.606C923.507 62.2532 911.975 53.0163 895.399 53.0163C879.543 53.0163 867.724 61.4006 867.724 71.348C867.724 75.6112 869.886 79.7323 873.201 82.4324L874.21 81.4376C871.327 78.7376 869.886 75.1849 869.886 72.2007C869.886 63.9585 881.417 58.7006 895.255 58.7006C911.975 58.7006 921.345 66.5164 921.345 76.4639C921.345 88.6851 907.363 96.5009 890.786 96.5009C862.246 96.5009 841.202 78.4534 836.012 53.7268C855.183 30.4213 887.039 10.1001 909.957 10.1001C917.02 10.1001 923.219 12.0896 928.552 16.0686L929.705 15.2159C925.669 8.2527 919.327 2.71053 909.525 2.71053C889.057 2.71053 854.463 27.1529 833.85 53.7268C840.337 83.0008 862.823 104.317 890.786 104.317Z" fill="black"/>
</svg>
